<?xml version="1.0" encoding="UTF-8" standalone="no"?>
<!-- Created with Inkscape (http://www.inkscape.org/) -->

<svg
   width="387.1629mm"
   height="74.077652mm"
   viewBox="0 0 1463.2929 279.97854"
   version="1.1"
   id="svg1"
   sodipodi:docname="ABCindex_title_smaller.svg"
   inkscape:version="1.3.2 (091e20e, 2023-11-25, custom)"
   xmlns:inkscape="http://www.inkscape.org/namespaces/inkscape"
   xmlns:sodipodi="http://sodipodi.sourceforge.net/DTD/sodipodi-0.dtd"
   xmlns="http://www.w3.org/2000/svg"
   xmlns:svg="http://www.w3.org/2000/svg"
   xmlns:rdf="http://www.w3.org/1999/02/22-rdf-syntax-ns#"
   xmlns:cc="http://creativecommons.org/ns#"
   xmlns:dc="http://purl.org/dc/elements/1.1/">
  <sodipodi:namedview
     id="namedview1"
     pagecolor="#ffffff"
     bordercolor="#000000"
     borderopacity="0.25"
     inkscape:showpageshadow="2"
     inkscape:pageopacity="0.0"
     inkscape:pagecheckerboard="0"
     inkscape:deskcolor="#d1d1d1"
     inkscape:document-units="mm"
     inkscape:zoom="0.9041252"
     inkscape:cx="732.19948"
     inkscape:cy="139.91425"
     inkscape:window-width="2560"
     inkscape:window-height="1377"
     inkscape:window-x="5752"
     inkscape:window-y="249"
     inkscape:window-maximized="1"
     inkscape:current-layer="svg1" />
  <title
     id="title5">ABCIlogo-clear1</title>
  <defs
     id="defs1" />
  <g
     id="g1"
     transform="scale(0.75)"
     style="stroke-width:1.33333">
    <g
       id="layer5"
       transform="translate(-63.841372,-55.000001)"
       style="stroke-width:1.33333">
      <ellipse
         style="fill:#d9d9d9;fill-opacity:1;stroke-width:0.475988"
         id="path9-7"
         cx="1313.2847"
         cy="97.586784"
         rx="12.123974"
         ry="11.860069" />
      <ellipse
         style="fill:#d9d6be;fill-opacity:1;stroke-width:0.652368"
         id="path9-7-4"
         cx="1263.9514"
         cy="98.045258"
         rx="16.616611"
         ry="16.254915" />
      <ellipse
         style="fill:#fed135;fill-opacity:1;stroke-width:0.938428"
         id="path9-9-8"
         cx="1201.0876"
         cy="98.369957"
         rx="23.902811"
         ry="23.382519" />
      <ellipse
         style="fill:#f9a20f;fill-opacity:1;stroke-width:1.0964"
         id="path9-9"
         cx="1128.9733"
         cy="98.966202"
         rx="27.926601"
         ry="27.318722" />
      <ellipse
         style="fill:#bd0000;fill-opacity:1;stroke-width:1.78499"
         id="path9"
         cx="1031.9552"
         cy="99.476067"
         rx="45.465721"
         ry="44.476067" />
      <ellipse
         style="fill:#d9d9d9;fill-opacity:1;stroke-width:0.475988"
         id="path9-7-7"
         cx="738.12036"
         cy="97.170982"
         rx="12.123974"
         ry="11.860069" />
      <ellipse
         style="fill:#dad7be;fill-opacity:1;stroke-width:0.652368"
         id="path9-7-4-6"
         cx="796.1369"
         cy="97.329277"
         rx="16.616611"
         ry="16.254915" />
      <ellipse
         style="fill:#fed135;fill-opacity:1;stroke-width:0.938428"
         id="path9-9-8-0"
         cx="858.79114"
         cy="97.095421"
         rx="23.902811"
         ry="23.382519" />
      <ellipse
         style="fill:#f9a20f;fill-opacity:1;stroke-width:1.0964"
         id="path9-9-5"
         cx="933.30096"
         cy="96.820038"
         rx="27.926601"
         ry="27.318722" />
      <path
         style="font-weight:600;font-size:266.667px;font-family:'Modulus Pro';-inkscape-font-specification:'Modulus Pro Semi-Bold';fill:#262626;stroke-width:1.33333"
         d="m 1088.7599,321.02669 q -5.3333,0 -9.3333,-3.73334 -3.7334,-4.00001 -3.7334,-9.33335 v -57.86673 q 0,-22.93337 16.2667,-39.20005 16.5334,-16.53336 39.7334,-16.53336 22.9334,0 39.2,16.53336 16.5334,16.26668 16.5334,39.20005 V 307.96 q 0,5.33334 -4,9.33335 -3.7333,3.73334 -9.0667,3.73334 -5.3333,0 -9.3333,-3.73334 -3.7334,-4.00001 -3.7334,-9.33335 v -57.86673 q 0,-12.26669 -8.8,-20.80003 -8.5333,-8.80001 -20.8,-8.80001 -12.2667,0 -21.0667,8.80001 -8.8,8.53334 -8.8,20.80003 V 307.96 q 0,5.33334 -3.7333,9.33335 -3.7334,3.73334 -9.3334,3.73334 z m 237.6003,-174.13355 v 109.8668 0.53333 1.06667 q 0,26.13337 -18.6667,44.80006 -18.4001,18.66669 -44.5334,18.66669 -26.4001,0 -45.0667,-18.66669 -18.4001,-18.66669 -18.4001,-44.80006 0,-26.13336 18.4001,-44.53339 18.6666,-18.66668 45.0667,-18.66668 21.8667,0 39.2,13.60001 v -61.86674 q 0,-5.33334 3.4667,-8.80001 3.7333,-3.73334 8.8,-3.73334 4.8,0 8.2667,3.73334 3.4667,3.73334 3.4667,8.80001 z m -89.8668,138.1335 q 11.2,10.93335 26.6667,10.93335 15.4667,0 26.4,-10.93335 10.9334,-11.20001 10.9334,-26.6667 0,-15.46668 -10.9334,-26.40003 -10.9333,-10.93335 -26.4,-10.93335 -15.4667,0 -26.6667,10.93335 -10.9334,10.93335 -10.9334,26.40003 0,15.73336 10.9334,26.6667 z m 221.0668,-18.66669 q -0.5333,0.26667 -1.8667,0.26667 l -84.5334,0.26667 q 2.6667,12.26668 12,20.00002 9.3334,7.73334 22.9334,9.33335 22.6667,2.66667 39.2,-9.86668 12.5334,-4.26668 16.2667,4.53334 4,9.86667 -7.2,16.26668 -18.4,16.53336 -52.0001,13.60002 -25.6,-2.66667 -41.8667,-20.53336 -16,-18.13336 -16,-42.66672 0,-26.13336 18.4,-44.53339 18.4,-18.66669 44.5334,-18.66669 25.6,0 43.2001,17.33336 17.6,17.33335 17.6,42.40005 0,4.53334 -3.2,8.00001 -2.9333,3.46667 -7.4667,4.26667 z m -50.1334,-48.00006 q -13.6,0 -23.7333,8.26668 -10.1334,8.00001 -12.8001,21.86669 l 71.2001,-0.26666 q -1.8666,-13.33335 -11.4667,-21.60003 -9.3333,-8.26668 -23.2,-8.26668 z m 135.1999,39.46672 34.6668,41.86672 q 3.4666,4.26667 2.9333,9.86668 -0.2667,5.33333 -4.5333,8.80001 -4.2667,2.93333 -8.5334,2.93333 -6.4,0 -9.8667,-4.8 l -31.7333,-38.13338 -31.7334,38.13338 q -4,4.8 -10.1334,4.8 -4.5333,0 -8.2666,-2.93333 -4.2667,-3.73334 -4.8,-9.06668 -0.2667,-5.33334 3.2,-9.60001 l 34.6667,-41.86672 -34.6667,-41.60005 q -3.4667,-4.26667 -3.2,-9.60001 0.5333,-5.33334 4.8,-9.06668 4.2666,-3.46667 9.6,-2.93334 5.3333,0.53334 8.8,4.53334 l 31.7334,38.13338 31.7333,-38.13338 q 3.4667,-4 8.8,-4.53334 5.3334,-0.53333 9.6001,2.93334 4.2666,3.46667 4.5333,9.06668 0.5333,5.33334 -2.9333,9.60001 z"
         id="text2"
         aria-label="ndex" />
      <path
         d="m 1042.6877,317.56483 c -3.2001,2.98667 -6.0241,4.26186 -10.2908,4.26186 -4.2666,0 -6.984,-0.40262 -9.9707,-3.38929 -2.9866,-3.2 -3.3893,-8.02404 -3.3893,-12.29071 v -120.32 c 0,-4.26667 1.2752,-8.7659 4.2619,-11.75257 2.9867,-3.2 4.8315,-3.92743 9.0981,-3.92743 4.2667,0 7.0907,0.72743 10.2908,3.92743 3.2,2.98667 3.7092,7.4859 3.7092,11.75257 v 120.32 c 0,4.26667 -0.5092,8.21814 -3.7092,11.41814 z"
         id="text5"
         style="font-weight:600;font-size:320px;font-family:'Modulus Pro';-inkscape-font-specification:'Modulus Pro Semi-Bold';fill:#262626;stroke-width:1.33333"
         aria-label="i" />
      <path
         style="font-weight:600;font-size:266.667px;font-family:'Modulus Pro';-inkscape-font-specification:'Modulus Pro Semi-Bold';fill:#262626;stroke-width:1.33333"
         d="m 916.98278,333.82669 q -39.46672,0 -67.46675,-27.73336 -27.73337,-28.00004 -27.73337,-67.46675 0,-39.20005 27.73337,-66.93342 28.00003,-28.00003 67.46675,-28.00003 29.0667,0 53.06673,16.26668 4.53333,2.93334 5.33333,8.26668 1.0667,5.33334 -1.86666,10.13335 -2.93334,4.53334 -8.26667,5.6 -5.33334,0.80001 -9.86668,-2.13333 -17.33336,-11.73335 -38.40005,-11.73335 -28.53337,0 -48.80006,20.00003 -20.00002,20.00002 -20.00002,48.53339 0,28.53337 20.00002,48.80006 20.26669,20.00002 48.80006,20.00002 22.13336,0 40.53338,-13.33335 4.53334,-3.2 9.60001,-2.4 5.33334,0.8 8.53337,5.33334 3.2,4.26667 2.4,9.86668 -0.8,5.33334 -5.06669,8.26667 -24.80003,18.66669 -56.00007,18.66669 z"
         id="text1"
         aria-label="C" />
      <path
         d="m 691.59821,333.82669 q -5.33334,0 -9.33335,-3.73334 -3.73334,-4 -3.73334,-9.33334 v -160.8002 -0.26667 q 0,-5.33334 3.73334,-9.06668 4.00001,-4 9.33335,-4 h 57.06673 q 21.8667,0 37.33338,15.73335 15.73335,15.46669 15.73335,37.60005 0,20.00002 -14.40001,33.60004 14.13335,4.8 23.20002,17.86669 9.33335,13.06668 9.33335,29.0667 0,22.13336 -15.73335,37.86671 -15.46669,15.46669 -37.33338,15.46669 z m 13.06668,-106.6668 h 44.00005 q 11.46668,0 19.20003,-8.00001 8.00001,-8.00001 8.00001,-19.20002 0,-11.46668 -8.00001,-19.46669 -7.73335,-8.00001 -19.20003,-8.00001 h -44.00005 z m 0,80.53343 h 62.13341 q 11.20001,0 19.20002,-8.00001 8.00001,-8.00001 8.00001,-19.20002 0,-11.20001 -8.00001,-19.20002 -8.00001,-8.00001 -19.20002,-8.00001 h -62.13341 z"
         id="text3"
         style="font-weight:600;font-size:266.667px;font-family:'Modulus Pro';-inkscape-font-specification:'Modulus Pro Semi-Bold';fill:#262626;stroke-width:1.33333"
         aria-label="B" />
      <path
         d="m 523.94461,326.04696 q -3.46667,7.46668 -10.93335,7.73335 -7.46667,0.53333 -12.00001,-5.06668 -4.53334,-5.86667 -1.06667,-13.33335 L 572.478,154.58009 q 3.46667,-7.73334 11.73335,-7.73334 8.26667,-0.26667 12.00001,7.73334 l 72.80009,160.80019 q 3.46667,7.20001 -1.33333,13.06669 -4.53334,5.86667 -12.00002,5.33334 -7.20001,-0.26667 -10.40001,-7.73335 L 629.0114,289.51359 h -89.06677 z m 27.73336,-62.40007 h 65.33342 l -32.80004,-72.26676 z"
         id="text4"
         style="font-weight:600;font-size:266.667px;font-family:'Modulus Pro';-inkscape-font-specification:'Modulus Pro Semi-Bold';fill:#262626;stroke-width:1.33333"
         aria-label="A" />
    </g>
    <g
       id="layer3"
       transform="translate(-63.841372,-31.000001)"
       style="stroke-width:1.33333">
      <path
         style="font-weight:600;font-size:69.3333px;font-family:'Modulus Pro';-inkscape-font-specification:'Modulus Pro Semi-Bold';fill:#1a1a1a;stroke-width:1.33333"
         d="m 88.593359,404.23536 q -10.261328,0 -17.541324,-7.21066 -7.210663,-7.28 -7.210663,-17.54132 0,-10.192 7.210663,-17.40266 7.279996,-7.28 17.541324,-7.28 7.55733,0 13.797331,4.22933 1.17866,0.76267 1.38666,2.14934 0.27733,1.38666 -0.48533,2.63466 -0.76267,1.17867 -2.14933,1.456 -1.38667,0.208 -2.565336,-0.55467 -4.506664,-3.05066 -9.983995,-3.05066 -7.418662,0 -12.687993,5.2 -5.199997,5.19999 -5.199997,12.61866 0,7.41866 5.199997,12.68799 5.269331,5.2 12.687993,5.2 5.754664,0 10.538662,-3.46667 1.178669,-0.832 2.495999,-0.624 1.38667,0.208 2.21866,1.38667 0.832,1.10933 0.624,2.56533 -0.208,1.38667 -1.31733,2.14933 -6.447995,4.85333 -14.559991,4.85333 z m 51.029231,-16.77865 v 0.27733 0.208 12.61866 q 0,1.38666 -0.90133,2.35733 -0.90134,0.97067 -2.14934,0.97067 -1.31733,0 -2.21866,-0.97067 -0.90133,-0.97067 -0.90133,-2.35733 v -1.248 q -4.64534,4.64533 -10.26133,4.64533 -6.864,0 -11.71733,-4.784 -4.784,-4.85333 -4.784,-11.71732 0,-6.79467 4.784,-11.57867 4.85333,-4.85333 11.71733,-4.85333 6.79466,0 11.57866,4.85333 4.85333,4.85334 4.85333,11.57867 z m -23.36532,6.93333 q 2.912,2.84266 6.93333,2.84266 4.02133,0 6.86399,-2.84266 2.84267,-2.912 2.84267,-6.93333 0,-4.02134 -2.84267,-6.864 -2.84266,-2.84267 -6.86399,-2.84267 -4.02133,0 -6.93333,2.84267 -2.84267,2.84266 -2.84267,6.864 0,4.02133 2.84267,6.93333 z m 43.61071,9.35999 q -6.79467,0 -10.816,-4.22933 -3.952,-4.22933 -3.952,-11.30133 v -29.60532 q 0,-1.38666 0.97067,-2.35733 1.04,-1.04 2.42666,-1.04 1.38667,0 2.35734,1.04 1.04,0.97067 1.04,2.35733 v 29.60532 q 0,8.736 7.97333,8.736 1.38666,0 2.35733,1.04 0.97066,0.97066 0.97066,2.35733 0,1.38666 -0.97066,2.42666 -0.97067,0.97067 -2.35733,0.97067 z m 20.6614,0.208 q -6.86399,0 -11.71733,-4.85333 -4.85333,-4.85333 -4.85333,-11.78666 0,-6.864 4.85333,-11.71733 4.85334,-4.85333 11.71733,-4.85333 5.75467,0 10.192,3.46667 1.10933,0.90133 1.31733,2.28799 0.208,1.38667 -0.69333,2.496 -0.90134,1.10934 -2.288,1.31734 -1.31734,0.13866 -2.42667,-0.76267 -2.77333,-2.01067 -6.10133,-2.01067 -4.02133,0 -6.93333,2.912 -2.84266,2.84267 -2.84266,6.864 0,4.09066 2.84266,7.00266 2.912,2.84267 6.93333,2.84267 3.39733,0 6.10133,-2.08 1.10933,-0.832 2.42667,-0.624 1.38666,0.13867 2.288,1.248 0.90133,1.10933 0.69333,2.496 -0.208,1.38666 -1.31733,2.288 -4.43733,3.46666 -10.192,3.46666 z m 20.38395,-33.14132 q 1.456,0 2.42667,0.97067 0.97066,0.97067 0.97066,2.42667 v 15.04532 q 0,3.12 2.288,5.408 2.288,2.21866 5.47733,2.21866 3.18933,0 5.408,-2.21866 2.288,-2.288 2.288,-5.408 v -15.04532 q 0,-1.456 0.97066,-2.42667 1.04,-0.97067 2.42667,-0.97067 1.38667,0 2.35733,0.97067 1.04,0.97067 1.04,2.42667 v 15.04532 q 0,5.96266 -4.29866,10.26133 -4.22933,4.22933 -10.192,4.22933 -6.032,0 -10.33066,-4.22933 -4.22933,-4.29867 -4.22933,-10.26133 v -15.04532 q 0,-1.456 0.97067,-2.42667 1.03999,-0.97067 2.42666,-0.97067 z m 45.89858,32.93332 q -6.79466,0 -10.81599,-4.22933 -3.952,-4.22933 -3.952,-11.30133 v -29.60532 q 0,-1.38666 0.97067,-2.35733 1.04,-1.04 2.42666,-1.04 1.38667,0 2.35734,1.04 1.04,0.97067 1.04,2.35733 v 29.60532 q 0,8.736 7.97332,8.736 1.38667,0 2.35734,1.04 0.97066,0.97066 0.97066,2.35733 0,1.38666 -0.97066,2.42666 -0.97067,0.97067 -2.35734,0.97067 z m 37.64799,-16.29332 v 0.27733 0.208 12.61866 q 0,1.38666 -0.90134,2.35733 -0.90133,0.97067 -2.14933,0.97067 -1.31733,0 -2.21866,-0.97067 -0.90134,-0.97067 -0.90134,-2.35733 v -1.248 q -4.64533,4.64533 -10.26133,4.64533 -6.86399,0 -11.71732,-4.784 -4.784,-4.85333 -4.784,-11.71732 0,-6.79467 4.784,-11.57867 4.85333,-4.85333 11.71732,-4.85333 6.79467,0 11.57867,4.85333 4.85333,4.85334 4.85333,11.57867 z m -23.36533,6.93333 q 2.912,2.84266 6.93333,2.84266 4.02134,0 6.864,-2.84266 2.84267,-2.912 2.84267,-6.93333 0,-4.02134 -2.84267,-6.864 -2.84266,-2.84267 -6.864,-2.84267 -4.02133,0 -6.93333,2.84267 -2.84266,2.84266 -2.84266,6.864 0,4.02133 2.84266,6.93333 z m 46.17605,2.63466 q 1.38666,0 2.35733,0.97067 1.04,0.97066 1.04,2.35733 0,1.38666 -1.04,2.42666 -0.97067,0.97067 -2.35733,0.97067 h -0.97067 q -6.30933,0 -11.02399,-4.22933 -4.64533,-4.22933 -4.64533,-12.41066 v -28.56532 q 0,-1.38667 0.97066,-2.35733 1.04,-0.97067 2.42667,-0.97067 1.38666,0 2.35733,0.97067 1.04,0.97066 1.04,2.35733 v 12.47999 h 8.38933 q 1.31733,0 2.21866,0.90134 0.90134,0.90133 0.90134,2.21866 0,1.31734 -0.90134,2.288 -0.90133,0.90133 -2.21866,0.90133 h -8.38933 v 9.776 q 0,4.368 2.35733,7.14133 2.35733,2.704 6.51733,2.704 z m 13.58935,-31.19998 q -1.10934,1.17866 -2.77334,1.17866 -1.664,0 -2.84266,-1.17866 -1.10933,-1.17867 -1.10933,-2.84267 0,-1.664 1.10933,-2.77333 1.17866,-1.17867 2.84266,-1.17867 1.664,0 2.77334,1.17867 1.10933,1.10933 1.10933,2.77333 0,1.664 -1.10933,2.84267 z m -0.416,36.95464 q -1.04,0.97067 -2.42667,0.97067 -1.38667,0 -2.35733,-0.97067 -0.97067,-1.04 -0.97067,-2.42666 v -26.06932 q 0,-1.38667 0.97067,-2.35733 0.97066,-1.04 2.35733,-1.04 1.38667,0 2.42667,1.04 1.03999,0.97066 1.03999,2.35733 v 26.06932 q 0,1.38666 -1.03999,2.42666 z m 21.56263,1.17867 q -6.864,0 -11.71733,-4.784 -4.784,-4.85333 -4.784,-11.71732 0,-6.79467 4.784,-11.57867 4.85333,-4.85333 11.71733,-4.85333 6.79466,0 11.57866,4.85333 4.85333,4.85334 4.85333,11.57867 0,6.86399 -4.85333,11.71732 -4.784,4.784 -11.57866,4.784 z m -6.93333,-9.56799 q 2.912,2.84266 6.93333,2.84266 4.02133,0 6.864,-2.84266 2.84266,-2.912 2.84266,-6.93333 0,-4.02134 -2.84266,-6.864 -2.84267,-2.84267 -6.864,-2.84267 -4.02133,0 -6.93333,2.84267 -2.84267,2.84266 -2.84267,6.864 0,4.09066 2.84267,6.93333 z m 31.75461,9.35999 q -1.38666,0 -2.42666,-0.97067 -0.97067,-1.04 -0.97067,-2.42666 v -15.04533 q 0,-5.96266 4.22933,-10.19199 4.29867,-4.29867 10.33066,-4.29867 5.96267,0 10.192,4.29867 4.29866,4.22933 4.29866,10.19199 v 15.04533 q 0,1.38666 -1.04,2.42666 -0.97066,0.97067 -2.35733,0.97067 -1.38667,0 -2.42667,-0.97067 -0.97066,-1.04 -0.97066,-2.42666 v -15.04533 q 0,-3.18933 -2.288,-5.40799 -2.21867,-2.288 -5.408,-2.288 -3.18933,0 -5.47733,2.288 -2.288,2.21866 -2.288,5.40799 v 15.04533 q 0,1.38666 -0.97066,2.42666 -0.97067,0.97067 -2.42667,0.97067 z m 85.27995,-4.992 q -5.33867,5.54667 -12.20266,5.54667 -6.864,0 -11.92533,-4.576 -4.992,-4.576 -5.26933,-11.09333 -0.416,-9.63733 8.66666,-15.73866 -3.25867,-6.23999 -1.248,-10.95466 1.17867,-2.77333 3.536,-4.576 2.42666,-1.87199 5.33866,-2.35733 3.81333,-0.69333 7.488,0.97067 3.67466,1.664 6.448,5.2 0.83199,1.04 0.69333,2.42666 -0.0693,1.31733 -1.04,2.21867 -1.10933,0.90133 -2.42667,0.76266 -1.31733,-0.13866 -2.21866,-1.17866 -3.536,-4.50667 -7.83466,-3.88267 -2.704,0.34667 -3.81334,2.912 -1.10933,2.77333 1.59467,6.72533 3.12,4.09067 13.86666,17.12533 1.664,-2.56534 3.39733,-8.32 0.416,-1.31733 1.59467,-1.94133 1.17866,-0.624 2.496,-0.13867 1.38666,0.34667 2.01066,1.59467 0.624,1.248 0.208,2.56533 l -0.27733,0.90133 q -0.27734,0.832 -0.69334,1.94133 -0.34666,1.04 -0.90133,2.496 -0.55466,1.38667 -1.456,3.05067 -0.832,1.664 -1.80266,3.12 4.22933,4.71466 4.22933,4.78399 0.90133,0.97067 0.832,2.35734 -0.0693,1.31733 -1.10934,2.28799 -1.03999,0.832 -2.28799,0.832 -1.38667,0 -2.42667,-1.17866 z m -12.20266,-1.04 q 4.22933,0 7.90399,-3.95199 -2.35733,-2.84267 -7.00266,-8.45867 -4.64533,-5.61599 -5.68533,-6.93333 -6.17067,4.16 -5.75467,9.984 0.13867,3.81333 3.12,6.58666 3.05067,2.77333 7.41867,2.77333 z m 63.23208,6.032 q -2.21867,0 -3.12,-2.08 l -10.88533,-26.13865 q -0.55466,-1.248 0,-2.56533 0.55467,-1.31734 1.872,-1.872 1.31734,-0.48534 2.56534,0.0693 1.31733,0.48533 1.87199,1.80267 l 7.83467,18.65065 8.04266,-18.71999 q 0.55467,-1.31733 1.872,-1.80266 1.31733,-0.55467 2.63466,0 1.31734,0.55466 1.80267,1.872 0.55467,1.31733 -0.0693,2.63466 l -11.232,26.06932 q -0.90133,2.08 -3.12,2.08 z m 28.14926,-37.92531 q -1.10933,1.17866 -2.77333,1.17866 -1.664,0 -2.84267,-1.17866 -1.10933,-1.17867 -1.10933,-2.84267 0,-1.664 1.10933,-2.77333 1.17867,-1.17867 2.84267,-1.17867 1.664,0 2.77333,1.17867 1.10933,1.10933 1.10933,2.77333 0,1.664 -1.10933,2.84267 z m -0.416,36.95464 q -1.04,0.97067 -2.42667,0.97067 -1.38666,0 -2.35733,-0.97067 -0.97066,-1.04 -0.97066,-2.42666 v -26.06932 q 0,-1.38667 0.97066,-2.35733 0.97067,-1.04 2.35733,-1.04 1.38667,0 2.42667,1.04 1.04,0.97066 1.04,2.35733 v 26.06932 q 0,1.38666 -1.04,2.42666 z m 18.71999,1.17867 q -5.40799,0.0693 -11.78666,-3.18933 -1.248,-0.48533 -1.80266,-1.73333 -0.48534,-1.31734 0,-2.56534 0.48533,-1.31733 1.73333,-1.80266 1.31733,-0.55467 2.56533,0 1.872,1.10933 3.952,1.80266 2.08,0.624 3.81333,0.76267 1.80267,0.0693 3.328,-0.208 1.52533,-0.34667 2.35733,-1.04 0.90133,-0.76267 0.90133,-1.80266 0,-1.248 -1.59466,-2.288 -1.59467,-1.10934 -4.29867,-1.664 -6.86399,-1.73333 -9.49866,-4.64533 -2.56533,-2.912 -2.288,-6.17067 0.27734,-3.744 3.88267,-6.17066 3.60533,-2.496 8.59733,-2.35733 4.92266,0 9.35999,2.56533 1.248,0.55467 1.73334,1.872 0.48533,1.31733 -0.0693,2.496 -0.55466,1.248 -1.872,1.80266 -1.248,0.48534 -2.496,-0.13866 -2.63466,-1.664 -5.47733,-1.94134 -2.84266,-0.27733 -4.57599,0.48534 -1.664,0.76266 -1.80267,2.01066 -0.0693,0.55467 0.27733,1.248 0.416,0.624 1.80267,1.52533 1.456,0.832 3.744,1.31734 11.92532,3.05066 11.92532,10.05333 0,3.88266 -3.18933,6.79466 -3.18933,2.84266 -9.22133,2.98133 z m 22.04799,-33.14132 q 1.456,0 2.42666,0.97067 0.97067,0.97067 0.97067,2.42667 v 15.04532 q 0,3.12 2.288,5.408 2.288,2.21866 5.47733,2.21866 3.18933,0 5.408,-2.21866 2.288,-2.288 2.288,-5.408 v -15.04532 q 0,-1.456 0.97066,-2.42667 1.04,-0.97067 2.42667,-0.97067 1.38666,0 2.35733,0.97067 1.04,0.97067 1.04,2.42667 v 15.04532 q 0,5.96266 -4.29867,10.26133 -4.22933,4.22933 -10.19199,4.22933 -6.032,0 -10.33066,-4.22933 -4.22933,-4.29867 -4.22933,-10.26133 v -15.04532 q 0,-1.456 0.97066,-2.42667 1.04,-0.97067 2.42667,-0.97067 z m 63.09321,16.64 v 0.27733 0.208 12.61866 q 0,1.38666 -0.90133,2.35733 -0.90133,0.97067 -2.14933,0.97067 -1.31734,0 -2.21867,-0.97067 -0.90133,-0.97067 -0.90133,-2.35733 v -1.248 q -4.64533,4.64533 -10.26133,4.64533 -6.864,0 -11.71733,-4.784 -4.784,-4.85333 -4.784,-11.71732 0,-6.79467 4.784,-11.57867 4.85333,-4.85333 11.71733,-4.85333 6.79466,0 11.57866,4.85333 4.85333,4.85334 4.85333,11.57867 z m -23.36532,6.93333 q 2.912,2.84266 6.93333,2.84266 4.02133,0 6.864,-2.84266 2.84266,-2.912 2.84266,-6.93333 0,-4.02134 -2.84266,-6.864 -2.84267,-2.84267 -6.864,-2.84267 -4.02133,0 -6.93333,2.84267 -2.84267,2.84266 -2.84267,6.864 0,4.02133 2.84267,6.93333 z m 43.61073,9.35999 q -6.79467,0 -10.816,-4.22933 -3.952,-4.22933 -3.952,-11.30133 v -29.60532 q 0,-1.38666 0.97067,-2.35733 1.04,-1.04 2.42667,-1.04 1.38666,0 2.35733,1.04 1.04,0.97067 1.04,2.35733 v 29.60532 q 0,8.736 7.97333,8.736 1.38666,0 2.35733,1.04 0.97066,0.97066 0.97066,2.35733 0,1.38666 -0.97066,2.42666 -0.97067,0.97067 -2.35733,0.97067 z m 13.93608,-37.92531 q -1.10933,1.17866 -2.77333,1.17866 -1.664,0 -2.84267,-1.17866 -1.10933,-1.17867 -1.10933,-2.84267 0,-1.664 1.10933,-2.77333 1.17867,-1.17867 2.84267,-1.17867 1.664,0 2.77333,1.17867 1.10933,1.10933 1.10933,2.77333 0,1.664 -1.10933,2.84267 z m -0.416,36.95464 q -1.04,0.97067 -2.42667,0.97067 -1.38666,0 -2.35733,-0.97067 -0.97067,-1.04 -0.97067,-2.42666 v -26.06932 q 0,-1.38667 0.97067,-2.35733 0.97067,-1.04 2.35733,-1.04 1.38667,0 2.42667,1.04 1.04,0.97066 1.04,2.35733 v 26.06932 q 0,1.38666 -1.04,2.42666 z m 9.29063,0.97067 q -2.14933,0 -3.05066,-1.872 -0.97067,-2.01066 0.416,-3.60533 l 16.01599,-20.45332 h -12.82666 q -1.456,0 -2.496,-0.97067 -0.97067,-1.04 -0.97067,-2.42666 0,-1.456 0.97067,-2.42667 1.04,-0.97067 2.496,-0.97067 h 19.75999 q 2.14933,0 3.05066,1.872 0.90134,1.94134 -0.34666,3.60533 l -16.01599,20.45333 h 14.28266 q 1.38666,0 2.35733,1.04 0.97066,0.97066 0.97066,2.35733 0,1.38666 -0.97066,2.42666 -0.97067,0.97067 -2.35733,0.97067 z m 62.46927,-16.29332 v 0.27733 0.208 12.61866 q 0,1.38666 -0.90133,2.35733 -0.90133,0.97067 -2.14933,0.97067 -1.31734,0 -2.21867,-0.97067 -0.90133,-0.97067 -0.90133,-2.35733 v -1.248 q -4.64533,4.64533 -10.26133,4.64533 -6.864,0 -11.71733,-4.784 -4.78399,-4.85333 -4.78399,-11.71732 0,-6.79467 4.78399,-11.57867 4.85333,-4.85333 11.71733,-4.85333 6.79466,0 11.57866,4.85333 4.85333,4.85334 4.85333,11.57867 z m -23.36532,6.93333 q 2.912,2.84266 6.93333,2.84266 4.02133,0 6.864,-2.84266 2.84266,-2.912 2.84266,-6.93333 0,-4.02134 -2.84266,-6.864 -2.84267,-2.84267 -6.864,-2.84267 -4.02133,0 -6.93333,2.84267 -2.84266,2.84266 -2.84266,6.864 0,4.02133 2.84266,6.93333 z m 46.17606,2.63466 q 1.38667,0 2.35733,0.97067 1.04,0.97066 1.04,2.35733 0,1.38666 -1.04,2.42666 -0.97066,0.97067 -2.35733,0.97067 h -0.97067 q -6.30933,0 -11.02399,-4.22933 -4.64533,-4.22933 -4.64533,-12.41066 v -28.56532 q 0,-1.38667 0.97066,-2.35733 1.04,-0.97067 2.42667,-0.97067 1.38667,0 2.35733,0.97067 1.04,0.97066 1.04,2.35733 v 12.47999 h 8.38933 q 1.31733,0 2.21867,0.90134 0.90133,0.90133 0.90133,2.21866 0,1.31734 -0.90133,2.288 -0.90134,0.90133 -2.21867,0.90133 h -8.38933 v 9.776 q 0,4.368 2.35733,7.14133 2.35734,2.704 6.51733,2.704 z m 13.58932,-31.19998 q -1.10934,1.17866 -2.77334,1.17866 -1.664,0 -2.84266,-1.17866 -1.10933,-1.17867 -1.10933,-2.84267 0,-1.664 1.10933,-2.77333 1.17866,-1.17867 2.84266,-1.17867 1.664,0 2.77334,1.17867 1.10933,1.10933 1.10933,2.77333 0,1.664 -1.10933,2.84267 z m -0.416,36.95464 q -1.04,0.97067 -2.42667,0.97067 -1.38667,0 -2.35733,-0.97067 -0.97067,-1.04 -0.97067,-2.42666 v -26.06932 q 0,-1.38667 0.97067,-2.35733 0.97066,-1.04 2.35733,-1.04 1.38667,0 2.42667,1.04 1.04,0.97066 1.04,2.35733 v 26.06932 q 0,1.38666 -1.04,2.42666 z m 21.56266,1.17867 q -6.864,0 -11.71733,-4.784 -4.784,-4.85333 -4.784,-11.71732 0,-6.79467 4.784,-11.57867 4.85333,-4.85333 11.71733,-4.85333 6.79466,0 11.57866,4.85333 4.85333,4.85334 4.85333,11.57867 0,6.86399 -4.85333,11.71732 -4.784,4.784 -11.57866,4.784 z m -6.93333,-9.56799 q 2.912,2.84266 6.93333,2.84266 4.02133,0 6.864,-2.84266 2.84266,-2.912 2.84266,-6.93333 0,-4.02134 -2.84266,-6.864 -2.84267,-2.84267 -6.864,-2.84267 -4.02133,0 -6.93333,2.84267 -2.84267,2.84266 -2.84267,6.864 0,4.09066 2.84267,6.93333 z m 31.75458,9.35999 q -1.38666,0 -2.42666,-0.97067 -0.97067,-1.04 -0.97067,-2.42666 v -15.04533 q 0,-5.96266 4.22933,-10.19199 4.29867,-4.29867 10.33066,-4.29867 5.96267,0 10.192,4.29867 4.29866,4.22933 4.29866,10.19199 v 15.04533 q 0,1.38666 -1.04,2.42666 -0.97066,0.97067 -2.35733,0.97067 -1.38667,0 -2.42667,-0.97067 -0.97066,-1.04 -0.97066,-2.42666 v -15.04533 q 0,-3.18933 -2.288,-5.40799 -2.21867,-2.288 -5.408,-2.288 -3.18933,0 -5.47733,2.288 -2.288,2.21866 -2.288,5.40799 v 15.04533 q 0,1.38666 -0.97066,2.42666 -0.97067,0.97067 -2.42667,0.97067 z m 70.85862,0.208 q -6.864,0 -11.71733,-4.784 -4.78399,-4.85333 -4.78399,-11.71732 0,-6.79467 4.78399,-11.57867 4.85333,-4.85333 11.71733,-4.85333 6.79466,0 11.57866,4.85333 4.85333,4.85334 4.85333,11.57867 0,6.86399 -4.85333,11.71732 -4.784,4.784 -11.57866,4.784 z m -6.93333,-9.56799 q 2.912,2.84266 6.93333,2.84266 4.02133,0 6.864,-2.84266 2.84266,-2.912 2.84266,-6.93333 0,-4.02134 -2.84266,-6.864 -2.84267,-2.84267 -6.864,-2.84267 -4.02133,0 -6.93333,2.84267 -2.84267,2.84266 -2.84267,6.864 0,4.09066 2.84267,6.93333 z m 45.13599,-32.37865 q -3.952,0 -6.30933,2.49599 -2.288,2.42667 -2.56534,6.51733 h 8.38933 q 1.31733,0 2.21867,0.90134 0.90133,0.90133 0.90133,2.21866 0,1.31734 -0.90133,2.288 -0.90134,0.90133 -2.21867,0.90133 h -8.38933 v 23.08799 q 0,1.38667 -1.04,2.35733 -0.97066,0.97067 -2.35733,0.97067 -1.38666,0 -2.42666,-0.97067 -0.97067,-0.97066 -0.97067,-2.35733 v -28.56532 q 0,-4.22933 1.38667,-7.55733 1.38666,-3.32799 3.67466,-5.19999 2.288,-1.94134 4.992,-2.912 2.704,-0.97067 5.616,-0.97067 h 0.97066 q 1.38667,0 2.35733,1.04 1.04,0.97067 1.04,2.35733 0,1.38667 -1.04,2.35734 -0.97066,0.97066 -2.35733,0.97066 z m 50.61342,35.01331 q 1.38667,0 2.35733,0.97067 1.04,0.97066 1.04,2.35733 0,1.38666 -1.04,2.42666 -0.97066,0.97067 -2.35733,0.97067 h -0.97066 q -6.30933,0 -11.024,-4.22933 -4.64533,-4.22933 -4.64533,-12.41066 v -28.56532 q 0,-1.38667 0.97067,-2.35733 1.04,-0.97067 2.42666,-0.97067 1.38667,0 2.35734,0.97067 1.03999,0.97066 1.03999,2.35733 v 12.47999 h 8.38933 q 1.31734,0 2.21867,0.90134 0.90133,0.90133 0.90133,2.21866 0,1.31734 -0.90133,2.288 -0.90133,0.90133 -2.21867,0.90133 h -8.38933 v 9.776 q 0,4.368 2.35734,7.14133 2.35733,2.704 6.51733,2.704 z m 22.67204,-26.20799 q 5.9626,0 10.192,4.29867 4.2986,4.22933 4.2986,10.19199 v 15.04533 q 0,1.38666 -1.04,2.42666 -0.9706,0.97067 -2.3573,0.97067 -1.3867,0 -2.4267,-0.97067 -0.9706,-1.04 -0.9706,-2.42666 v -15.04533 q 0,-3.18933 -2.288,-5.40799 -2.2187,-2.288 -5.408,-2.288 -3.1894,0 -5.47735,2.288 -2.288,2.21866 -2.288,5.40799 v 15.04533 q 0,1.38666 -0.97067,2.42666 -0.97066,0.97067 -2.42666,0.97067 -1.38667,0 -2.42667,-0.97067 -0.97066,-1.04 -0.97066,-2.42666 v -41.87731 q 0,-1.456 0.97066,-2.42667 1.04,-0.97066 2.42667,-0.97066 1.456,0 2.42666,0.97066 0.97067,0.97067 0.97067,2.42667 v 14.55999 q 3.53595,-2.21867 7.76535,-2.21867 z m 47.4933,18.71999 q -0.1387,0.0693 -0.4853,0.0693 l -21.9787,0.0693 q 0.6934,3.18933 3.12,5.2 2.4267,2.01066 5.9627,2.42666 5.8933,0.69334 10.192,-2.56533 3.2586,-1.10933 4.2293,1.17867 1.04,2.56533 -1.872,4.22933 -4.784,4.29866 -13.52,3.536 -6.656,-0.69334 -10.8853,-5.33867 -4.16,-4.71466 -4.16,-11.09332 0,-6.79467 4.784,-11.57867 4.784,-4.85333 11.5787,-4.85333 6.6559,0 11.2319,4.50667 4.576,4.50666 4.576,11.02399 0,1.17867 -0.832,2.08 -0.7626,0.90133 -1.9413,1.10933 z m -13.0346,-12.47999 q -3.536,0 -6.1707,2.14933 -2.6347,2.08 -3.328,5.68533 l 18.512,-0.0693 q -0.4854,-3.46666 -2.9814,-5.616 -2.4266,-2.14933 -6.0319,-2.14933 z m 46.6613,24.68265 q -0.9014,1.94134 -2.8427,2.01067 -1.9413,0.13867 -3.12,-1.31733 -1.1787,-1.52533 -0.2773,-3.46667 l 18.8586,-41.80798 q 0.9014,-2.01066 3.0507,-2.01066 2.1493,-0.0693 3.12,2.01066 l 18.928,41.80798 q 0.9013,1.872 -0.3467,3.39733 -1.1786,1.52534 -3.12,1.38667 -1.872,-0.0693 -2.704,-2.01067 l -4.2293,-9.49866 h -23.1573 z m 7.2106,-16.22399 h 16.9867 l -8.528,-18.78932 z m 42.7094,18.23466 q -1.3867,0 -2.4267,-0.97067 -0.9707,-1.04 -0.9707,-2.42666 v -15.04533 q 0,-5.96266 4.2294,-10.19199 4.2986,-4.29867 10.3306,-4.29867 5.9627,0 10.192,4.29867 4.2987,4.22933 4.2987,10.19199 v 15.04533 q 0,1.38666 -1.04,2.42666 -0.9707,0.97067 -2.3573,0.97067 -1.3867,0 -2.4267,-0.97067 -0.9707,-1.04 -0.9707,-2.42666 v -15.04533 q 0,-3.18933 -2.288,-5.40799 -2.2186,-2.288 -5.408,-2.288 -3.1893,0 -5.4773,2.288 -2.288,2.21866 -2.288,5.40799 v 15.04533 q 0,1.38666 -0.9707,2.42666 -0.9706,0.97067 -2.4266,0.97067 z m 48.4639,-6.72533 q 1.3867,0 2.3574,0.97067 1.04,0.97066 1.04,2.35733 0,1.38666 -1.04,2.42666 -0.9707,0.97067 -2.3574,0.97067 h -0.9706 q -6.3094,0 -11.024,-4.22933 -4.6454,-4.22933 -4.6454,-12.41066 v -28.56532 q 0,-1.38667 0.9707,-2.35733 1.04,-0.97067 2.4267,-0.97067 1.3866,0 2.3573,0.97067 1.04,0.97066 1.04,2.35733 v 12.47999 h 8.3893 q 1.3174,0 2.2187,0.90134 0.9013,0.90133 0.9013,2.21866 0,1.31734 -0.9013,2.288 -0.9013,0.90133 -2.2187,0.90133 h -8.3893 v 9.776 q 0,4.368 2.3573,7.14133 2.3574,2.704 6.5174,2.704 z m 13.5893,-31.19998 q -1.1094,1.17866 -2.7733,1.17866 -1.664,0 -2.8427,-1.17866 -1.1093,-1.17867 -1.1093,-2.84267 0,-1.664 1.1093,-2.77333 1.1787,-1.17867 2.8427,-1.17867 1.6639,0 2.7733,1.17867 1.1093,1.10933 1.1093,2.77333 0,1.664 -1.1093,2.84267 z m -0.416,36.95464 q -1.04,0.97067 -2.4267,0.97067 -1.3866,0 -2.3573,-0.97067 -0.9707,-1.04 -0.9707,-2.42666 v -26.06932 q 0,-1.38667 0.9707,-2.35733 0.9707,-1.04 2.3573,-1.04 1.3867,0 2.4267,1.04 1.04,0.97066 1.04,2.35733 v 26.06932 q 0,1.38666 -1.04,2.42666 z m 8.112,-17.12532 q -0.9707,-1.04 -0.9707,-2.42667 0,-1.38666 0.9707,-2.35733 0.9707,-1.04 2.3573,-1.04 h 18.2347 q 1.3867,0 2.3573,1.04 0.9707,0.97067 0.9707,2.35733 0,1.38667 -0.9707,2.42667 -0.9706,0.97067 -2.3573,0.97067 h -18.2347 q -1.3866,0 -2.3573,-0.97067 z m 37.0239,18.16532 q -1.3866,0 -2.4266,-0.97066 -0.9707,-1.04 -0.9707,-2.42667 v -41.80798 -0.0693 q 0,-1.38667 0.9707,-2.35733 1.04,-1.04 2.4266,-1.04 h 14.8374 q 5.6853,0 9.7066,4.09066 4.0907,4.02133 4.0907,9.776 0,5.2 -3.744,8.73599 3.6747,1.248 6.032,4.64533 2.4266,3.39734 2.4266,7.55733 0,5.75467 -4.0906,9.84533 -4.0213,4.02133 -9.7067,4.02133 z m 3.3974,-27.73332 h 11.44 q 2.9813,0 4.992,-2.07999 2.08,-2.08 2.08,-4.992 0,-2.98133 -2.08,-5.06133 -2.0107,-2.08 -4.992,-2.08 h -11.44 z m 0,20.93866 h 16.1546 q 2.912,0 4.992,-2.08 2.08,-2.08 2.08,-4.992 0,-2.91199 -2.08,-4.99199 -2.08,-2.08 -4.992,-2.08 h -16.1546 z m 39.8666,-31.19998 q -1.1094,1.17866 -2.7734,1.17866 -1.664,0 -2.8426,-1.17866 -1.1094,-1.17867 -1.1094,-2.84267 0,-1.664 1.1094,-2.77333 1.1786,-1.17867 2.8426,-1.17867 1.664,0 2.7734,1.17867 1.1093,1.10933 1.1093,2.77333 0,1.664 -1.1093,2.84267 z m -0.416,36.95464 q -1.04,0.97067 -2.4267,0.97067 -1.3867,0 -2.3573,-0.97067 -0.9707,-1.04 -0.9707,-2.42666 v -26.06932 q 0,-1.38667 0.9707,-2.35733 0.9706,-1.04 2.3573,-1.04 1.3867,0 2.4267,1.04 1.04,0.97066 1.04,2.35733 v 26.06932 q 0,1.38666 -1.04,2.42666 z m 21.5626,1.17867 q -6.864,0 -11.7173,-4.784 -4.784,-4.85333 -4.784,-11.71732 0,-6.79467 4.784,-11.57867 4.8533,-4.85333 11.7173,-4.85333 6.7947,0 11.5787,4.85333 4.8533,4.85334 4.8533,11.57867 0,6.86399 -4.8533,11.71732 -4.784,4.784 -11.5787,4.784 z m -6.9333,-9.56799 q 2.912,2.84266 6.9333,2.84266 4.0214,0 6.864,-2.84266 2.8427,-2.912 2.8427,-6.93333 0,-4.02134 -2.8427,-6.864 -2.8426,-2.84267 -6.864,-2.84267 -4.0213,0 -6.9333,2.84267 -2.8427,2.84266 -2.8427,6.864 0,4.09066 2.8427,6.93333 z m 57.824,-23.36533 q 1.456,0 2.4267,0.97067 1.04,0.97067 1.04,2.42667 v 25.93065 q 0,1.38666 -1.04,2.42666 -0.9707,0.97067 -2.4267,0.97067 -1.3866,0 -2.3573,-0.97067 -0.9707,-1.04 -0.9707,-2.42666 v -23.01866 h -18.2346 v 23.08799 q 0,1.38667 -1.04,2.35733 -0.9707,0.97067 -2.3573,0.97067 -1.3867,0 -2.4267,-0.97067 -0.9707,-0.97066 -0.9707,-2.35733 v -28.56532 q 0,-8.18133 4.6454,-12.41066 4.7146,-4.22933 11.0239,-4.22933 h 0.9707 q 1.3867,0 2.3573,1.04 1.04,0.97067 1.04,2.35733 0,1.38667 -1.04,2.35734 -0.9706,0.97066 -2.3573,0.97066 l -0.9707,0.0693 q -3.9519,0 -6.3093,2.49599 -2.288,2.42667 -2.5653,6.51733 z m 0.069,-4.02133 q -1.5947,0 -2.7734,-1.17866 -1.1786,-1.248 -1.1786,-2.84267 0,-1.664 1.1786,-2.77333 1.1787,-1.17867 2.7734,-1.17867 1.664,0 2.7733,1.17867 1.1093,1.10933 1.1093,2.77333 0,1.664 -1.1093,2.84267 -1.1093,1.17866 -2.7733,1.17866 z m 23.9892,36.74665 q -6.7947,0 -10.816,-4.22933 -3.952,-4.22933 -3.952,-11.30133 v -29.60532 q 0,-1.38666 0.9706,-2.35733 1.04,-1.04 2.4267,-1.04 1.3867,0 2.3573,1.04 1.04,0.97067 1.04,2.35733 v 29.60532 q 0,8.736 7.9734,8.736 1.3866,0 2.3573,1.04 0.9707,0.97066 0.9707,2.35733 0,1.38666 -0.9707,2.42666 -0.9707,0.97067 -2.3573,0.97067 z m 42.0161,-32.86398 q 5.5466,0 9.4986,3.952 3.952,3.88266 3.952,9.49866 v 16.01599 q 0,1.38666 -1.04,2.42666 -0.9706,0.97067 -2.3573,0.97067 -1.456,0 -2.496,-0.97067 -0.9707,-1.04 -0.9707,-2.42666 v -16.01599 q 0,-2.77333 -1.9413,-4.71467 -1.9413,-2.01066 -4.6453,-2.01066 -2.7734,0 -4.7147,2.01066 -1.9413,1.94134 -1.9413,4.71467 v 16.01599 q 0,1.38666 -1.04,2.42666 -0.9707,0.97067 -2.3574,0.97067 -1.456,0 -2.4266,-0.97067 -0.9707,-1.04 -0.9707,-2.42666 v -16.01599 q 0,-2.77333 -1.9413,-4.71467 -1.9414,-2.01066 -4.7147,-2.01066 -2.704,0 -4.6453,2.01066 -1.9413,1.94134 -1.9413,4.71467 v 16.01599 q 0,1.38666 -1.04,2.42666 -0.9707,0.97067 -2.4267,0.97067 -1.3867,0 -2.4267,-0.97067 -0.9706,-1.04 -0.9706,-2.42666 v -16.01599 q 0,-5.616 3.952,-9.49866 3.952,-3.952 9.4986,-3.952 5.9627,0 10.0533,4.50666 4.0907,-4.50666 10.0534,-4.50666 z m 68.224,33.34931 q -10.2614,0 -17.5414,-7.21066 -7.2106,-7.28 -7.2106,-17.54132 0,-10.192 7.2106,-17.40266 7.28,-7.28 17.5414,-7.28 7.5573,0 13.7973,4.22933 1.1787,0.76267 1.3867,2.14934 0.2773,1.38666 -0.4854,2.63466 -0.7626,1.17867 -2.1493,1.456 -1.3867,0.208 -2.5653,-0.55467 -4.5067,-3.05066 -9.984,-3.05066 -7.4187,0 -12.688,5.2 -5.2,5.19999 -5.2,12.61866 0,7.41866 5.2,12.68799 5.2693,5.2 12.688,5.2 5.7546,0 10.5386,-3.46667 1.1787,-0.832 2.496,-0.624 1.3867,0.208 2.2187,1.38667 0.832,1.10933 0.624,2.56533 -0.208,1.38667 -1.3173,2.14933 -6.448,4.85333 -14.56,4.85333 z m 36.4,-0.27733 q -6.864,0 -11.7173,-4.784 -4.784,-4.85333 -4.784,-11.71732 0,-6.79467 4.784,-11.57867 4.8533,-4.85333 11.7173,-4.85333 6.7947,0 11.5786,4.85333 4.8534,4.85334 4.8534,11.57867 0,6.86399 -4.8534,11.71732 -4.7839,4.784 -11.5786,4.784 z m -6.9333,-9.56799 q 2.912,2.84266 6.9333,2.84266 4.0213,0 6.864,-2.84266 2.8427,-2.912 2.8427,-6.93333 0,-4.02134 -2.8427,-6.864 -2.8427,-2.84267 -6.864,-2.84267 -4.0213,0 -6.9333,2.84267 -2.8427,2.84266 -2.8427,6.864 0,4.09066 2.8427,6.93333 z m 62.6079,-23.50399 q 5.5466,0 9.4986,3.952 3.952,3.88266 3.952,9.49866 v 16.01599 q 0,1.38666 -1.04,2.42666 -0.9706,0.97067 -2.3573,0.97067 -1.456,0 -2.496,-0.97067 -0.9707,-1.04 -0.9707,-2.42666 v -16.01599 q 0,-2.77333 -1.9413,-4.71467 -1.9413,-2.01066 -4.6453,-2.01066 -2.7734,0 -4.7147,2.01066 -1.9413,1.94134 -1.9413,4.71467 v 16.01599 q 0,1.38666 -1.04,2.42666 -0.9707,0.97067 -2.3574,0.97067 -1.456,0 -2.4266,-0.97067 -0.9707,-1.04 -0.9707,-2.42666 v -16.01599 q 0,-2.77333 -1.9413,-4.71467 -1.9414,-2.01066 -4.7147,-2.01066 -2.704,0 -4.6453,2.01066 -1.9414,1.94134 -1.9414,4.71467 v 16.01599 q 0,1.38666 -1.04,2.42666 -0.9706,0.97067 -2.4266,0.97067 -1.3867,0 -2.4267,-0.97067 -0.9707,-1.04 -0.9707,-2.42666 v -16.01599 q 0,-5.616 3.952,-9.49866 3.952,-3.952 9.4987,-3.952 5.9627,0 10.0533,4.50666 4.0907,-4.50666 10.0534,-4.50666 z m 35.776,0.13866 q 6.864,0 11.648,4.85333 4.8533,4.784 4.8533,11.57867 0,6.79466 -4.8533,11.64799 -4.784,4.85333 -11.648,4.85333 -6.7947,0 -11.648,-4.85333 -4.8533,-4.85333 -4.8533,-11.64799 v -0.27734 -0.13866 -28.56532 q 0,-1.31734 0.9013,-2.288 0.9707,-0.97067 2.2187,-0.97067 1.3173,0 2.2186,0.97067 0.9014,0.90133 0.9014,2.288 v 16.15466 q 4.5066,-3.60534 10.2613,-3.60534 z m -6.9333,23.36533 q 2.912,2.84266 6.9333,2.84266 4.0213,0 6.864,-2.84266 2.912,-2.912 2.912,-6.93333 0,-4.02134 -2.912,-6.864 -2.8427,-2.84267 -6.864,-2.84267 -4.0213,0 -6.9333,2.84267 -2.8427,2.84266 -2.8427,6.864 0,4.09066 2.8427,6.93333 z m 35.0133,-28.56532 q -1.1094,1.17866 -2.7734,1.17866 -1.664,0 -2.8426,-1.17866 -1.1094,-1.17867 -1.1094,-2.84267 0,-1.664 1.1094,-2.77333 1.1786,-1.17867 2.8426,-1.17867 1.664,0 2.7734,1.17867 1.1093,1.10933 1.1093,2.77333 0,1.664 -1.1093,2.84267 z m -0.416,36.95464 q -1.04,0.97067 -2.4267,0.97067 -1.3867,0 -2.3573,-0.97067 -0.9707,-1.04 -0.9707,-2.42666 v -26.06932 q 0,-1.38667 0.9707,-2.35733 0.9706,-1.04 2.3573,-1.04 1.3867,0 2.4267,1.04 1.04,0.97066 1.04,2.35733 v 26.06932 q 0,1.38666 -1.04,2.42666 z m 9.7065,0.97067 q -1.3866,0 -2.4266,-0.97067 -0.9707,-1.04 -0.9707,-2.42666 v -15.04533 q 0,-5.96266 4.2293,-10.19199 4.2987,-4.29867 10.3307,-4.29867 5.9626,0 10.192,4.29867 4.2986,4.22933 4.2986,10.19199 v 15.04533 q 0,1.38666 -1.04,2.42666 -0.9706,0.97067 -2.3573,0.97067 -1.3867,0 -2.4267,-0.97067 -0.9706,-1.04 -0.9706,-2.42666 v -15.04533 q 0,-3.18933 -2.288,-5.40799 -2.2187,-2.288 -5.408,-2.288 -3.1894,0 -5.4774,2.288 -2.2879,2.21866 -2.2879,5.40799 v 15.04533 q 0,1.38666 -0.9707,2.42666 -0.9707,0.97067 -2.4267,0.97067 z m 62.0534,-16.29332 v 0.27733 0.208 12.61866 q 0,1.38666 -0.9014,2.35733 -0.9013,0.97067 -2.1493,0.97067 -1.3173,0 -2.2187,-0.97067 -0.9013,-0.97067 -0.9013,-2.35733 v -1.248 q -4.6453,4.64533 -10.2613,4.64533 -6.864,0 -11.7173,-4.784 -4.784,-4.85333 -4.784,-11.71732 0,-6.79467 4.784,-11.57867 4.8533,-4.85333 11.7173,-4.85333 6.7946,0 11.5786,4.85333 4.8534,4.85334 4.8534,11.57867 z m -23.3653,6.93333 q 2.912,2.84266 6.9333,2.84266 4.0213,0 6.864,-2.84266 2.8426,-2.912 2.8426,-6.93333 0,-4.02134 -2.8426,-6.864 -2.8427,-2.84267 -6.864,-2.84267 -4.0213,0 -6.9333,2.84267 -2.8427,2.84266 -2.8427,6.864 0,4.02133 2.8427,6.93333 z m 46.176,2.63466 q 1.3867,0 2.3573,0.97067 1.04,0.97066 1.04,2.35733 0,1.38666 -1.04,2.42666 -0.9706,0.97067 -2.3573,0.97067 h -0.9707 q -6.3093,0 -11.0239,-4.22933 -4.6454,-4.22933 -4.6454,-12.41066 v -28.56532 q 0,-1.38667 0.9707,-2.35733 1.04,-0.97067 2.4267,-0.97067 1.3866,0 2.3573,0.97067 1.04,0.97066 1.04,2.35733 v 12.47999 h 8.3893 q 1.3173,0 2.2187,0.90134 0.9013,0.90133 0.9013,2.21866 0,1.31734 -0.9013,2.288 -0.9014,0.90133 -2.2187,0.90133 h -8.3893 v 9.776 q 0,4.368 2.3573,7.14133 2.3573,2.704 6.5173,2.704 z m 13.5894,-31.19998 q -1.1093,1.17866 -2.7733,1.17866 -1.664,0 -2.8427,-1.17866 -1.1093,-1.17867 -1.1093,-2.84267 0,-1.664 1.1093,-2.77333 1.1787,-1.17867 2.8427,-1.17867 1.664,0 2.7733,1.17867 1.1093,1.10933 1.1093,2.77333 0,1.664 -1.1093,2.84267 z m -0.416,36.95464 q -1.04,0.97067 -2.4267,0.97067 -1.3866,0 -2.3573,-0.97067 -0.9707,-1.04 -0.9707,-2.42666 v -26.06932 q 0,-1.38667 0.9707,-2.35733 0.9707,-1.04 2.3573,-1.04 1.3867,0 2.4267,1.04 1.04,0.97066 1.04,2.35733 v 26.06932 q 0,1.38666 -1.04,2.42666 z m 21.5625,1.17867 q -6.864,0 -11.7173,-4.784 -4.784,-4.85333 -4.784,-11.71732 0,-6.79467 4.784,-11.57867 4.8533,-4.85333 11.7173,-4.85333 6.7947,0 11.5787,4.85333 4.8533,4.85334 4.8533,11.57867 0,6.86399 -4.8533,11.71732 -4.784,4.784 -11.5787,4.784 z m -6.9333,-9.56799 q 2.912,2.84266 6.9333,2.84266 4.0214,0 6.864,-2.84266 2.8427,-2.912 2.8427,-6.93333 0,-4.02134 -2.8427,-6.864 -2.8426,-2.84267 -6.864,-2.84267 -4.0213,0 -6.9333,2.84267 -2.8427,2.84266 -2.8427,6.864 0,4.09066 2.8427,6.93333 z m 31.7547,9.35999 q -1.3867,0 -2.4267,-0.97067 -0.9706,-1.04 -0.9706,-2.42666 v -15.04533 q 0,-5.96266 4.2293,-10.19199 4.2987,-4.29867 10.3307,-4.29867 5.9626,0 10.192,4.29867 4.2986,4.22933 4.2986,10.19199 v 15.04533 q 0,1.38666 -1.04,2.42666 -0.9706,0.97067 -2.3573,0.97067 -1.3867,0 -2.4267,-0.97067 -0.9706,-1.04 -0.9706,-2.42666 v -15.04533 q 0,-3.18933 -2.288,-5.40799 -2.2187,-2.288 -5.408,-2.288 -3.1894,0 -5.4774,2.288 -2.288,2.21866 -2.288,5.40799 v 15.04533 q 0,1.38666 -0.9706,2.42666 -0.9707,0.97067 -2.4267,0.97067 z m 72.8692,-6.72533 q 1.3867,0 2.3574,1.04 0.9706,0.97067 0.9706,2.35733 0,1.38667 -0.9706,2.35733 -0.9707,0.97067 -2.3574,0.97067 h -13.1733 q -1.3867,0 -2.4267,-0.97067 -0.9706,-0.97066 -0.9706,-2.35733 0,-1.38666 0.9706,-2.35733 1.04,-1.04 2.4267,-1.04 h 3.1893 v -35.15198 h -3.1893 q -1.3867,0 -2.4267,-0.97067 -0.9706,-0.97066 -0.9706,-2.35733 0,-1.38667 0.9706,-2.35733 1.04,-1.04 2.4267,-1.04 h 13.1733 q 1.3867,0 2.3574,1.04 0.9706,0.97066 0.9706,2.35733 0,1.38667 -0.9706,2.35733 -0.9707,0.97067 -2.3574,0.97067 h -3.1893 v 35.15198 z m 12.2027,6.72533 q -1.3867,0 -2.4267,-0.97067 -0.9706,-1.04 -0.9706,-2.42666 v -15.04533 q 0,-5.96266 4.2293,-10.19199 4.2987,-4.29867 10.3307,-4.29867 5.9626,0 10.192,4.29867 4.2986,4.22933 4.2986,10.19199 v 15.04533 q 0,1.38666 -1.04,2.42666 -0.9706,0.97067 -2.3573,0.97067 -1.3867,0 -2.4267,-0.97067 -0.9706,-1.04 -0.9706,-2.42666 v -15.04533 q 0,-3.18933 -2.288,-5.40799 -2.2187,-2.288 -5.408,-2.288 -3.1894,0 -5.4774,2.288 -2.288,2.21866 -2.288,5.40799 v 15.04533 q 0,1.38666 -0.9706,2.42666 -0.9707,0.97067 -2.4267,0.97067 z m 61.7759,-45.27464 v 28.56532 0.13866 0.27734 q 0,6.79466 -4.8533,11.64799 -4.784,4.85333 -11.5787,4.85333 -6.864,0 -11.7173,-4.85333 -4.784,-4.85333 -4.784,-11.64799 0,-6.79467 4.784,-11.57867 4.8533,-4.85333 11.7173,-4.85333 5.6853,0 10.192,3.536 v -16.08532 q 0,-1.38667 0.9013,-2.288 0.9707,-0.97067 2.288,-0.97067 1.248,0 2.1494,0.97067 0.9013,0.97066 0.9013,2.288 z m -23.3653,35.91465 q 2.912,2.84266 6.9333,2.84266 4.0213,0 6.864,-2.84266 2.8427,-2.912 2.8427,-6.93333 0,-4.02134 -2.8427,-6.864 -2.8427,-2.84267 -6.864,-2.84267 -4.0213,0 -6.9333,2.84267 -2.8427,2.84266 -2.8427,6.864 0,4.09066 2.8427,6.93333 z m 57.4772,-4.85334 q -0.1386,0.0693 -0.4853,0.0693 l -21.9786,0.0693 q 0.6933,3.18933 3.12,5.2 2.4266,2.01066 5.9626,2.42666 5.8933,0.69334 10.192,-2.56533 3.2587,-1.10933 4.2293,1.17867 1.04,2.56533 -1.872,4.22933 -4.784,4.29866 -13.5199,3.536 -6.656,-0.69334 -10.8854,-5.33867 -4.16,-4.71466 -4.16,-11.09332 0,-6.79467 4.784,-11.57867 4.784,-4.85333 11.5787,-4.85333 6.656,0 11.232,4.50667 4.576,4.50666 4.576,11.02399 0,1.17867 -0.832,2.08 -0.7627,0.90133 -1.9414,1.10933 z m -13.0346,-12.47999 q -3.536,0 -6.1707,2.14933 -2.6346,2.08 -3.328,5.68533 l 18.512,-0.0693 q -0.4853,-3.46666 -2.9813,-5.616 -2.4267,-2.14933 -6.032,-2.14933 z m 35.152,10.26133 9.0133,10.88533 q 0.9013,1.10933 0.7627,2.56533 -0.069,1.38666 -1.1787,2.288 -1.1093,0.76266 -2.2187,0.76266 -1.664,0 -2.5653,-1.248 l -8.2507,-9.91466 -8.2506,9.91466 q -1.04,1.248 -2.6347,1.248 -1.1787,0 -2.1493,-0.76266 -1.1094,-0.97067 -1.248,-2.35733 -0.069,-1.38667 0.832,-2.496 l 9.0133,-10.88533 -9.0133,-10.816 q -0.9014,-1.10933 -0.832,-2.49599 0.1386,-1.38667 1.248,-2.35734 1.1093,-0.90133 2.496,-0.76266 1.3866,0.13866 2.288,1.17866 l 8.2506,9.91467 8.2507,-9.91467 q 0.9013,-1.04 2.288,-1.17866 1.3867,-0.13867 2.496,0.76266 1.1093,0.90134 1.1787,2.35734 0.1386,1.38666 -0.7627,2.49599 z"
         id="text6"
         aria-label="Calculation &amp; visualization of the Anti-Biofilm Combination Index" />
    </g>
  </g>
  <metadata
     id="metadata5">
    <rdf:RDF>
      <cc:Work
         rdf:about="">
        <dc:title>ABCIlogo-clear1</dc:title>
        <dc:contributor>
          <cc:Agent>
            <dc:title>Lucas Pedraz, Travis Blimkie, Robert EW Hancock</dc:title>
          </cc:Agent>
        </dc:contributor>
        <dc:creator>
          <cc:Agent>
            <dc:title>Lucas Pedraz</dc:title>
          </cc:Agent>
        </dc:creator>
      </cc:Work>
    </rdf:RDF>
  </metadata>
</svg>
