<?xml version="1.0" encoding="UTF-8" standalone="no"?>
<svg
   class="svglite"
   width="496.31839pt"
   height="411.54312pt"
   viewBox="0 0 496.31839 411.54312"
   version="1.1"
   id="svg31"
   sodipodi:docname="dot_size_scaling.svg"
   inkscape:version="1.3.2 (091e20e, 2023-11-25, custom)"
   xmlns:inkscape="http://www.inkscape.org/namespaces/inkscape"
   xmlns:sodipodi="http://sodipodi.sourceforge.net/DTD/sodipodi-0.dtd"
   xmlns="http://www.w3.org/2000/svg"
   xmlns:svg="http://www.w3.org/2000/svg">
  <sodipodi:namedview
     id="namedview31"
     pagecolor="#ffffff"
     bordercolor="#000000"
     borderopacity="0.25"
     inkscape:showpageshadow="2"
     inkscape:pageopacity="0.0"
     inkscape:pagecheckerboard="0"
     inkscape:deskcolor="#d1d1d1"
     inkscape:document-units="pt"
     inkscape:zoom="1.9527116"
     inkscape:cx="271.1614"
     inkscape:cy="275.25826"
     inkscape:window-width="2560"
     inkscape:window-height="1377"
     inkscape:window-x="5752"
     inkscape:window-y="249"
     inkscape:window-maximized="1"
     inkscape:current-layer="svg31" />
  <defs
     id="defs1">
    <style
       type="text/css"
       id="style1"><![CDATA[
    .svglite line, .svglite polyline, .svglite polygon, .svglite path, .svglite rect, .svglite circle {
      fill: none;
      stroke: #000000;
      stroke-linecap: round;
      stroke-linejoin: round;
      stroke-miterlimit: 10.00;
    }
    .svglite text {
      white-space: pre;
    }
  ]]></style>
  </defs>
  <defs
     id="defs2">
    <clipPath
       id="cpMC4wMHw1MDQuMDB8MC4wMHw0NTMuNjA=">
      <rect
         x="0"
         y="0"
         width="504"
         height="453.60001"
         id="rect2" />
    </clipPath>
  </defs>
  <defs
     id="defs4">
    <clipPath
       id="cpODMuNDN8NDkyLjA0fDg1Ljg3fDM4NC4wMA==">
      <rect
         x="83.43"
         y="85.870003"
         width="408.60999"
         height="298.13"
         id="rect4" />
    </clipPath>
  </defs>
  <rect
     style="fill:#ffffff;stroke:none;stroke-width:0.668976"
     id="rect31"
     width="496.31839"
     height="411.54312"
     x="0"
     y="0" />
  <g
     id="g32"
     transform="translate(-7.5203827,-30.196333)">
    <g
       clip-path="url(#cpODMuNDN8NDkyLjA0fDg1Ljg3fDM4NC4wMA==)"
       id="g6">
      <rect
         x="83.43"
         y="85.870003"
         width="408.60999"
         height="298.13"
         style="fill:#ffffff;stroke:none;stroke-width:2.33"
         id="rect5" />
      <polyline
         points="83.43,384.00 87.44,381.08 91.45,378.16 95.45,375.24 99.46,372.31 103.46,369.39 107.47,366.47 111.48,363.54 115.48,360.62 119.49,357.70 123.49,354.78 127.50,351.85 131.51,348.93 135.51,346.01 139.52,343.08 143.52,340.16 147.53,337.24 151.54,334.32 155.54,331.39 159.55,328.47 163.55,325.55 167.56,322.62 171.57,319.70 175.57,316.78 179.58,313.86 183.58,310.93 187.59,308.01 191.60,305.09 195.60,302.16 199.61,299.24 203.61,296.32 207.62,293.39 211.63,290.47 215.63,287.55 219.64,284.63 223.64,281.70 227.65,278.78 231.66,275.86 235.66,272.93 239.67,270.01 243.67,267.09 247.68,264.17 251.69,261.24 255.69,258.32 259.70,255.40 263.70,252.47 267.71,249.55 271.72,246.63 275.72,243.71 279.73,240.78 283.73,237.86 287.74,234.94 291.75,232.01 295.75,229.09 299.76,226.17 303.76,223.25 307.77,220.32 311.78,217.40 315.78,214.48 319.79,211.55 323.79,208.63 327.80,205.71 331.81,202.79 335.81,199.86 339.82,196.94 343.82,194.02 347.83,191.09 351.84,188.17 355.84,185.25 359.85,182.32 363.85,179.40 367.86,176.48 371.87,173.56 375.87,170.63 379.88,167.71 383.88,164.79 387.89,161.86 391.90,158.94 395.90,156.02 399.91,153.10 403.91,150.17 407.92,147.25 411.93,144.33 415.93,141.40 419.94,138.48 423.94,135.56 427.95,132.64 431.96,129.71 435.96,126.79 439.97,123.87 443.97,120.94 447.98,118.02 451.98,115.10 455.99,112.18 460.00,109.25 464.00,106.33 468.01,103.41 472.01,100.48 476.02,97.56 480.03,94.64 484.03,91.72 "
         style="stroke:#a00000;stroke-width:4.27;stroke-linecap:butt"
         id="polyline5" />
      <polyline
         points="83.43,381.08 87.44,381.08 91.45,380.63 95.45,380.41 99.46,380.18 103.46,379.96 107.47,379.73 111.48,379.28 115.48,378.83 119.49,378.38 123.49,377.93 127.50,377.48 131.51,377.03 135.51,376.36 139.52,375.91 143.52,375.46 147.53,375.01 151.54,374.56 155.54,374.11 159.55,373.44 163.55,372.99 167.56,372.54 171.57,372.09 175.57,371.64 179.58,371.19 183.58,370.52 187.59,370.07 191.60,369.62 195.60,369.16 199.61,368.71 203.61,368.04 207.62,367.37 211.63,366.92 215.63,366.47 219.64,366.02 223.64,365.34 227.65,364.22 231.66,362.64 235.66,360.85 239.67,358.60 243.67,355.90 247.68,352.75 251.69,349.15 255.69,345.11 259.70,340.39 263.70,334.99 267.71,329.14 271.72,322.85 275.72,316.33 279.73,309.81 283.73,303.29 287.74,296.77 291.75,290.25 295.75,283.73 299.76,277.43 303.76,271.36 307.77,265.74 311.78,260.57 315.78,255.85 319.79,251.35 323.79,247.30 327.80,243.48 331.81,240.11 335.81,236.96 339.82,234.26 343.82,231.79 347.83,229.77 351.84,227.74 355.84,225.94 359.85,224.15 363.85,222.57 367.86,221.00 371.87,219.42 375.87,217.62 379.88,215.83 383.88,213.58 387.89,210.88 391.90,207.28 395.90,203.01 399.91,197.84 403.91,191.99 407.92,185.25 411.93,177.83 415.93,169.73 419.94,161.41 423.94,153.10 427.95,144.78 431.96,136.68 435.96,128.81 439.97,121.62 443.97,115.32 447.98,109.70 451.98,104.98 455.99,101.16 460.00,98.24 464.00,96.21 468.01,94.86 472.01,93.96 476.02,93.29 480.03,92.84 484.03,91.72 "
         style="stroke:#00c000;stroke-width:4.27;stroke-linecap:butt"
         id="polyline6" />
    </g>
    <g
       clip-path="url(#cpMC4wMHw1MDQuMDB8MC4wMHw0NTMuNjA=)"
       id="g31">
      <polyline
         points="83.43,384.00 83.43,85.87 "
         style="stroke-width:2.33;stroke-linecap:butt"
         id="polyline7" />
      <path
         d="m 67.264739,377.2 q 1.995356,0 3.1195,1.425 1.339604,1.6875 1.339604,5.59687 0,3.9 -1.348972,5.60625 -1.114776,1.40626 -3.110132,1.40626 -2.004723,0 -3.231914,-1.53751 -1.22719,-1.54687 -1.22719,-5.50312 0,-3.88125 1.348972,-5.5875 Q 65.269383,377.2 67.264739,377.2 Z m 0,2.18437 q -0.477761,0 -0.852476,0.30938 -0.374715,0.3 -0.580808,1.0875 -0.271668,1.02187 -0.271668,3.44062 0,2.41875 0.243565,3.32813 0.243564,0.9 0.608911,1.2 0.374715,0.3 0.852476,0.3 0.477761,0 0.852476,-0.3 0.374714,-0.30938 0.580808,-1.09688 0.271668,-1.0125 0.271668,-3.43125 0,-2.41875 -0.243565,-3.31875 -0.243564,-0.90937 -0.618279,-1.20937 -0.365347,-0.30938 -0.843108,-0.30938 z"
         id="text7"
         style="font-weight:bold;font-size:19.2px;font-family:'Nimbus Sans';text-anchor:end;white-space:pre;stroke:none;fill:#000000"
         aria-label="0" />
      <path
         d="m 61.035108,315.48312 v 2.44687 h -9.227349 q 0.149886,-1.3875 0.899315,-2.625 0.74943,-1.24687 2.960246,-3.3 1.779895,-1.65937 2.182713,-2.25 0.543336,-0.81562 0.543336,-1.6125 0,-0.88125 -0.477761,-1.35 -0.468393,-0.47812 -1.302133,-0.47812 -0.824373,0 -1.311502,0.49687 -0.487129,0.49688 -0.562072,1.65 l -2.623002,-0.2625 q 0.234196,-2.175 1.470755,-3.12187 1.236558,-0.94688 3.091396,-0.94688 2.032827,0 3.194442,1.09688 1.161616,1.09687 1.161616,2.72812 0,0.92813 -0.337244,1.77188 -0.327875,0.83437 -1.049201,1.75312 -0.477761,0.60938 -1.723687,1.75313 -1.245926,1.14375 -1.58317,1.51875 -0.327875,0.375 -0.533968,0.73125 z m 1.817366,-1.0875 2.623002,-0.27188 q 0.112415,0.89063 0.665119,1.41563 0.552704,0.51562 1.27403,0.51562 0.824372,0 1.395812,-0.66562 0.57144,-0.675 0.57144,-2.025 0,-1.26563 -0.57144,-1.89375 -0.562072,-0.6375 -1.470755,-0.6375 -1.133512,0 -2.032827,1.00312 l -2.135874,-0.30937 1.348973,-7.15313 h 6.960325 v 2.46563 H 66.51531 l -0.412186,2.33437 q 0.880579,-0.44062 1.79863,-0.44062 1.751791,0 2.969614,1.275 1.217822,1.275 1.217822,3.30937 0,1.69688 -0.983626,3.02813 -1.339605,1.81875 -3.719043,1.81875 -1.901677,0 -3.100764,-1.02188 -1.199086,-1.02187 -1.433283,-2.74687 z"
         id="text8"
         style="font-weight:bold;font-size:19.2px;font-family:'Nimbus Sans';text-anchor:end;white-space:pre;stroke:none;fill:#000000"
         aria-label="25" />
      <path
         d="m 52.182474,241.31563 2.623002,-0.27187 q 0.112415,0.89062 0.665119,1.41562 0.552704,0.51563 1.27403,0.51563 0.824372,0 1.395812,-0.66563 0.57144,-0.675 0.57144,-2.025 0,-1.26562 -0.57144,-1.89375 -0.562072,-0.6375 -1.470755,-0.6375 -1.133512,0 -2.032827,1.00313 l -2.135874,-0.30938 1.348973,-7.15312 h 6.960325 v 2.46562 H 55.84531 l -0.412187,2.33438 q 0.88058,-0.44063 1.798631,-0.44063 1.751791,0 2.969613,1.275 1.217823,1.275 1.217823,3.30938 0,1.69687 -0.983626,3.02812 -1.339605,1.81875 -3.719043,1.81875 -1.901677,0 -3.100764,-1.02187 -1.199087,-1.02188 -1.433283,-2.74688 z m 15.082265,-10.26562 q 1.995355,0 3.119499,1.425 1.339605,1.6875 1.339605,5.59687 0,3.9 -1.348972,5.60625 -1.114777,1.40625 -3.110132,1.40625 -2.004723,0 -3.231914,-1.5375 -1.22719,-1.54687 -1.22719,-5.50312 0,-3.88125 1.348972,-5.5875 1.114776,-1.40625 3.110132,-1.40625 z m 0,2.18437 q -0.477761,0 -0.852476,0.30938 -0.374715,0.3 -0.580808,1.0875 -0.271668,1.02187 -0.271668,3.44062 0,2.41875 0.243565,3.32813 0.243564,0.9 0.608911,1.2 0.374715,0.3 0.852476,0.3 0.477761,0 0.852476,-0.3 0.374714,-0.30938 0.580808,-1.09688 0.271668,-1.0125 0.271668,-3.43125 0,-2.41875 -0.243565,-3.31875 -0.243564,-0.90937 -0.618279,-1.20937 -0.365347,-0.30938 -0.843108,-0.30938 z"
         id="text9"
         style="font-weight:bold;font-size:19.2px;font-family:'Nimbus Sans';text-anchor:end;white-space:pre;stroke:none;fill:#000000"
         aria-label="50" />
      <path
         d="m 52.145002,160.67062 v -2.44687 h 9.00252 v 1.9125 q -1.114776,1.09687 -2.267024,3.15 -1.152247,2.05312 -1.761159,4.36875 -0.599543,2.30625 -0.590175,4.125 h -2.538692 q 0.06558,-2.85 1.170983,-5.8125 1.114776,-2.9625 2.969614,-5.29688 z m 10.707472,7.575 2.623002,-0.27187 q 0.112415,0.89062 0.665119,1.41562 0.552704,0.51563 1.27403,0.51563 0.824372,0 1.395812,-0.66563 0.57144,-0.675 0.57144,-2.025 0,-1.26562 -0.57144,-1.89375 -0.562072,-0.6375 -1.470755,-0.6375 -1.133512,0 -2.032827,1.00313 l -2.135874,-0.30938 1.348973,-7.15312 h 6.960325 v 2.46562 H 66.51531 l -0.412186,2.33438 q 0.880579,-0.44063 1.79863,-0.44063 1.751791,0 2.969614,1.275 1.217822,1.275 1.217822,3.30938 0,1.69687 -0.983626,3.02812 -1.339605,1.81875 -3.719043,1.81875 -1.901677,0 -3.100764,-1.02187 -1.199086,-1.02188 -1.433283,-2.74688 z"
         id="text10"
         style="font-weight:bold;font-size:19.2px;font-family:'Nimbus Sans';text-anchor:end;white-space:pre;stroke:none;fill:#000000"
         aria-label="75" />
      <path
         d="m 48.210501,98.709999 h -2.63237 v -9.928125 q -1.442651,1.35 -3.400535,1.996875 v -2.390625 q 1.030465,-0.3375 2.23892,-1.275 1.208454,-0.946875 1.658112,-2.203125 h 2.135873 z m 8.38424,-13.8 q 1.995356,0 3.119499,1.425 1.339605,1.6875 1.339605,5.596875 0,3.9 -1.348972,5.60625 -1.114776,1.40625 -3.110132,1.40625 -2.004723,0 -3.231913,-1.5375 -1.227191,-1.546875 -1.227191,-5.503125 0,-3.88125 1.348973,-5.5875 1.114776,-1.40625 3.110131,-1.40625 z m 0,2.184375 q -0.477761,0 -0.852476,0.309375 -0.374714,0.3 -0.580807,1.0875 -0.271668,1.021875 -0.271668,3.440625 0,2.41875 0.243564,3.328125 0.243565,0.9 0.608911,1.2 0.374715,0.3 0.852476,0.3 0.477761,0 0.852476,-0.3 0.374715,-0.309375 0.580808,-1.096875 0.271668,-1.0125 0.271668,-3.43125 0,-2.41875 -0.243565,-3.31875 -0.243564,-0.909375 -0.618279,-1.209375 -0.365347,-0.309375 -0.843108,-0.309375 z M 67.26474,84.909999 q 1.995356,0 3.1195,1.425 1.339604,1.6875 1.339604,5.596875 0,3.9 -1.348972,5.60625 -1.114776,1.40625 -3.110132,1.40625 -2.004723,0 -3.231913,-1.5375 -1.227191,-1.546875 -1.227191,-5.503125 0,-3.88125 1.348973,-5.5875 1.114776,-1.40625 3.110131,-1.40625 z m 0,2.184375 q -0.477761,0 -0.852475,0.309375 -0.374715,0.3 -0.580808,1.0875 -0.271668,1.021875 -0.271668,3.440625 0,2.41875 0.243564,3.328125 0.243565,0.9 0.608912,1.2 0.374714,0.3 0.852475,0.3 0.477761,0 0.852476,-0.3 0.374715,-0.309375 0.580808,-1.096875 0.271668,-1.0125 0.271668,-3.43125 0,-2.41875 -0.243565,-3.31875 -0.243564,-0.909375 -0.618279,-1.209375 -0.365347,-0.309375 -0.843108,-0.309375 z"
         id="text11"
         style="font-weight:bold;font-size:19.2px;font-family:'Nimbus Sans';text-anchor:end;white-space:pre;stroke:none;fill:#000000"
         aria-label="100" />
      <polyline
         points="77.46,384.00 83.43,384.00 "
         style="stroke:#333333;stroke-width:2.33;stroke-linecap:butt"
         id="polyline11" />
      <polyline
         points="77.46,310.93 83.43,310.93 "
         style="stroke:#333333;stroke-width:2.33;stroke-linecap:butt"
         id="polyline12" />
      <polyline
         points="77.46,237.86 83.43,237.86 "
         style="stroke:#333333;stroke-width:2.33;stroke-linecap:butt"
         id="polyline13" />
      <polyline
         points="77.46,164.79 83.43,164.79 "
         style="stroke:#333333;stroke-width:2.33;stroke-linecap:butt"
         id="polyline14" />
      <polyline
         points="77.46,91.72 83.43,91.72 "
         style="stroke:#333333;stroke-width:2.33;stroke-linecap:butt"
         id="polyline15" />
      <polyline
         points="83.43,384.00 492.04,384.00 "
         style="stroke-width:2.33;stroke-linecap:butt"
         id="polyline16" />
      <polyline
         points="83.43,389.98 83.43,384.00 "
         style="stroke:#333333;stroke-width:2.33;stroke-linecap:butt"
         id="polyline17" />
      <polyline
         points="183.58,389.98 183.58,384.00 "
         style="stroke:#333333;stroke-width:2.33;stroke-linecap:butt"
         id="polyline18" />
      <polyline
         points="283.73,389.98 283.73,384.00 "
         style="stroke:#333333;stroke-width:2.33;stroke-linecap:butt"
         id="polyline19" />
      <polyline
         points="383.88,389.98 383.88,384.00 "
         style="stroke:#333333;stroke-width:2.33;stroke-linecap:butt"
         id="polyline20" />
      <polyline
         points="484.03,389.98 484.03,384.00 "
         style="stroke:#333333;stroke-width:2.33;stroke-linecap:butt"
         id="polyline21" />
      <path
         d="m 83.359741,394.95 q 1.995356,0 3.1195,1.425 1.339605,1.6875 1.339605,5.59687 0,3.9 -1.348973,5.60625 -1.114776,1.40626 -3.110132,1.40626 -2.004723,0 -3.231914,-1.53751 -1.22719,-1.54687 -1.22719,-5.50312 0,-3.88125 1.348973,-5.5875 1.114776,-1.40625 3.110131,-1.40625 z m 0,2.18437 q -0.477761,0 -0.852476,0.30938 -0.374714,0.3 -0.580807,1.0875 -0.271669,1.02187 -0.271669,3.44062 0,2.41875 0.243565,3.32813 0.243565,0.9 0.608911,1.2 0.374715,0.3 0.852476,0.3 0.477761,0 0.852476,-0.3 0.374715,-0.30938 0.580808,-1.09688 0.271668,-1.0125 0.271668,-3.43125 0,-2.41875 -0.243565,-3.31875 -0.243564,-0.90937 -0.618279,-1.20937 -0.365347,-0.30938 -0.843108,-0.30938 z"
         id="text21"
         style="font-weight:bold;font-size:19.2px;font-family:'Nimbus Sans';text-anchor:middle;white-space:pre;stroke:none;fill:#000000"
         aria-label="0" />
      <path
         d="M 182.61511,406.30312 V 408.75 h -9.22735 q 0.14989,-1.3875 0.89932,-2.625 0.74943,-1.24688 2.96024,-3.3 1.7799,-1.65938 2.18272,-2.25 0.54333,-0.81563 0.54333,-1.6125 0,-0.88125 -0.47776,-1.35 -0.46839,-0.47813 -1.30213,-0.47813 -0.82437,0 -1.3115,0.49688 -0.48713,0.49687 -0.56207,1.65 l -2.62301,-0.2625 q 0.2342,-2.175 1.47076,-3.12188 1.23656,-0.94687 3.09139,-0.94687 2.03283,0 3.19445,1.09687 1.16161,1.09688 1.16161,2.72813 0,0.92812 -0.33724,1.77187 -0.32788,0.83438 -1.0492,1.75313 -0.47776,0.60937 -1.72369,1.75312 -1.24593,1.14375 -1.58317,1.51875 -0.32788,0.375 -0.53397,0.73125 z m 1.81737,-1.0875 2.623,-0.27187 q 0.11241,0.89062 0.66512,1.41562 0.5527,0.51563 1.27403,0.51563 0.82437,0 1.39581,-0.66563 0.57144,-0.675 0.57144,-2.025 0,-1.26562 -0.57144,-1.89375 -0.56207,-0.6375 -1.47075,-0.6375 -1.13352,0 -2.03283,1.00313 l -2.13587,-0.30938 1.34897,-7.15312 h 6.96032 v 2.46562 h -4.96497 l -0.41218,2.33438 q 0.88058,-0.44063 1.79863,-0.44063 1.75179,0 2.96961,1.275 1.21782,1.275 1.21782,3.30938 0,1.69687 -0.98362,3.02812 -1.33961,1.81876 -3.71905,1.81876 -1.90167,0 -3.10076,-1.02188 -1.19909,-1.02188 -1.43328,-2.74688 z"
         id="text22"
         style="font-weight:bold;font-size:19.2px;font-family:'Nimbus Sans';text-anchor:middle;white-space:pre;stroke:none;fill:#000000"
         aria-label="25" />
      <path
         d="m 273.91249,405.21562 2.623,-0.27187 q 0.11241,0.89062 0.66512,1.41562 0.5527,0.51563 1.27403,0.51563 0.82437,0 1.39581,-0.66563 0.57144,-0.675 0.57144,-2.025 0,-1.26562 -0.57144,-1.89375 -0.56207,-0.6375 -1.47076,-0.6375 -1.13351,0 -2.03282,1.00313 l -2.13588,-0.30938 1.34898,-7.15312 h 6.96032 v 2.46562 h -4.96497 l -0.41218,2.33438 q 0.88058,-0.44063 1.79863,-0.44063 1.75179,0 2.96961,1.275 1.21782,1.275 1.21782,3.30938 0,1.69687 -0.98362,3.02812 -1.33961,1.81876 -3.71905,1.81876 -1.90167,0 -3.10076,-1.02188 -1.19909,-1.02188 -1.43328,-2.74688 z M 288.99475,394.95 q 1.99536,0 3.1195,1.425 1.33961,1.6875 1.33961,5.59687 0,3.9 -1.34898,5.60625 -1.11477,1.40626 -3.11013,1.40626 -2.00472,0 -3.23191,-1.53751 -1.22719,-1.54687 -1.22719,-5.50312 0,-3.88125 1.34897,-5.5875 1.11478,-1.40625 3.11013,-1.40625 z m 0,2.18437 q -0.47776,0 -0.85247,0.30938 -0.37472,0.3 -0.58081,1.0875 -0.27167,1.02187 -0.27167,3.44062 0,2.41875 0.24356,3.32813 0.24357,0.9 0.60892,1.2 0.37471,0.3 0.85247,0.3 0.47776,0 0.85248,-0.3 0.37471,-0.30938 0.58081,-1.09688 0.27166,-1.0125 0.27166,-3.43125 0,-2.41875 -0.24356,-3.31875 -0.24357,-0.90937 -0.61828,-1.20937 -0.36535,-0.30938 -0.84311,-0.30938 z"
         id="text23"
         style="font-weight:bold;font-size:19.2px;font-family:'Nimbus Sans';text-anchor:middle;white-space:pre;stroke:none;fill:#000000"
         aria-label="50" />
      <path
         d="m 374.02501,397.64062 v -2.44687 h 9.00252 v 1.9125 q -1.11478,1.09687 -2.26702,3.15 -1.15225,2.05312 -1.76116,4.36875 -0.59955,2.30625 -0.59018,4.125 h -2.53869 q 0.0656,-2.85 1.17098,-5.8125 1.11478,-2.9625 2.96962,-5.29688 z m 10.70747,7.575 2.623,-0.27187 q 0.11242,0.89062 0.66512,1.41562 0.55271,0.51563 1.27403,0.51563 0.82437,0 1.39581,-0.66563 0.57144,-0.675 0.57144,-2.025 0,-1.26562 -0.57144,-1.89375 -0.56207,-0.6375 -1.47075,-0.6375 -1.13351,0 -2.03283,1.00313 l -2.13587,-0.30938 1.34897,-7.15312 h 6.96033 v 2.46562 h -4.96497 l -0.41219,2.33438 q 0.88058,-0.44063 1.79863,-0.44063 1.75179,0 2.96961,1.275 1.21783,1.275 1.21783,3.30938 0,1.69687 -0.98363,3.02812 -1.3396,1.81876 -3.71904,1.81876 -1.90168,0 -3.10077,-1.02188 -1.19908,-1.02188 -1.43328,-2.74688 z"
         id="text24"
         style="font-weight:bold;font-size:19.2px;font-family:'Nimbus Sans';text-anchor:middle;white-space:pre;stroke:none;fill:#000000"
         aria-label="75" />
      <path
         d="m 475.5755,408.75 h -2.63237 v -9.92813 q -1.44265,1.35 -3.40054,1.99688 v -2.39063 q 1.03047,-0.3375 2.23892,-1.275 1.20846,-0.94687 1.65812,-2.20312 h 2.13587 z m 8.38424,-13.8 q 1.99536,0 3.1195,1.425 1.3396,1.6875 1.3396,5.59687 0,3.9 -1.34897,5.60625 -1.11477,1.40626 -3.11013,1.40626 -2.00472,0 -3.23191,-1.53751 -1.22719,-1.54687 -1.22719,-5.50312 0,-3.88125 1.34897,-5.5875 1.11477,-1.40625 3.11013,-1.40625 z m 0,2.18437 q -0.47776,0 -0.85248,0.30938 -0.37471,0.3 -0.5808,1.0875 -0.27167,1.02187 -0.27167,3.44062 0,2.41875 0.24356,3.32813 0.24357,0.9 0.60891,1.2 0.37472,0.3 0.85248,0.3 0.47776,0 0.85248,-0.3 0.37471,-0.30938 0.5808,-1.09688 0.27167,-1.0125 0.27167,-3.43125 0,-2.41875 -0.24356,-3.31875 -0.24357,-0.90937 -0.61828,-1.20937 -0.36535,-0.30938 -0.84311,-0.30938 z m 10.67,-2.18437 q 1.99535,0 3.1195,1.425 1.3396,1.6875 1.3396,5.59687 0,3.9 -1.34897,5.60625 -1.11478,1.40626 -3.11013,1.40626 -2.00472,0 -3.23191,-1.53751 -1.22719,-1.54687 -1.22719,-5.50312 0,-3.88125 1.34897,-5.5875 1.11477,-1.40625 3.11013,-1.40625 z m 0,2.18437 q -0.47776,0 -0.85248,0.30938 -0.37471,0.3 -0.5808,1.0875 -0.27167,1.02187 -0.27167,3.44062 0,2.41875 0.24356,3.32813 0.24357,0.9 0.60891,1.2 0.37472,0.3 0.85248,0.3 0.47776,0 0.85247,-0.3 0.37472,-0.30938 0.58081,-1.09688 0.27167,-1.0125 0.27167,-3.43125 0,-2.41875 -0.24356,-3.31875 -0.24357,-0.90937 -0.61828,-1.20937 -0.36535,-0.30938 -0.84311,-0.30938 z"
         id="text25"
         style="font-weight:bold;font-size:19.2px;font-family:'Nimbus Sans';text-anchor:middle;white-space:pre;stroke:none;fill:#000000"
         aria-label="100" />
      <path
         d="m 166.74802,423.4725 q 0,-2.30859 1.00788,-3.42187 1.01959,-1.11328 2.75408,-1.11328 1.79308,0 2.80095,1.11328 1.0196,1.10156 1.0196,3.42187 0,2.3086 -1.0196,3.42188 -1.00787,1.11328 -2.74236,1.11328 -1.79308,0 -2.81267,-1.10156 -1.00788,-1.11328 -1.00788,-3.4336 z m 2.56657,-0.0234 q 0,1.67578 0.38674,2.25 0.29299,0.42187 0.80865,0.42187 0.52737,0 0.82036,-0.42187 0.37502,-0.57422 0.37502,-2.25 0,-1.67579 -0.37502,-2.23829 -0.29299,-0.43359 -0.82036,-0.43359 -0.51566,0 -0.80865,0.42188 -0.38674,0.57421 -0.38674,2.25 z m 3.70336,13.61718 h -2.43766 l 9.15292,-18.1289 h 2.36734 z m 5.32064,-4.51172 q 0,-2.30859 1.00788,-3.42187 1.01959,-1.11328 2.77752,-1.11328 1.76964,0 2.77751,1.11328 1.0196,1.11328 1.0196,3.42187 0,2.32032 -1.0196,3.4336 -1.00787,1.11328 -2.74236,1.11328 -1.79308,0 -2.81267,-1.11328 -1.00788,-1.11328 -1.00788,-3.4336 z m 2.56657,-0.0117 q 0,1.67578 0.38674,2.23828 0.29299,0.43359 0.80865,0.43359 0.52737,0 0.80864,-0.42187 0.38674,-0.57422 0.38674,-2.25 0,-1.67579 -0.37502,-2.25 -0.29299,-0.42188 -0.82036,-0.42188 -0.52738,0 -0.80865,0.42188 -0.38674,0.57421 -0.38674,2.25 z m 14.56732,-13.3125 h 6.86762 q 2.03919,0 3.03535,0.17578 1.00787,0.16406 1.79308,0.70312 0.79692,0.53906 1.3243,1.44141 0.52738,0.89062 0.52738,2.0039 0,1.20704 -0.6563,2.21485 -0.64457,1.00781 -1.75792,1.51172 1.57041,0.45703 2.41422,1.55859 0.8438,1.10156 0.8438,2.58984 0,1.17188 -0.55082,2.28516 -0.53909,1.10156 -1.48837,1.76953 -0.93756,0.65625 -2.32046,0.8086 -0.86724,0.0937 -4.18386,0.11718 h -5.84802 z m 3.46897,2.85937 v 3.97266 h 2.27358 q 2.02747,0 2.51969,-0.0586 0.89068,-0.10547 1.39462,-0.60937 0.51565,-0.51563 0.51565,-1.34766 0,-0.79687 -0.44534,-1.28906 -0.43362,-0.50391 -1.30086,-0.60938 -0.51566,-0.0586 -2.96503,-0.0586 z m 0,6.83203 v 4.59375 h 3.21114 q 1.87512,0 2.37905,-0.10547 0.77349,-0.14062 1.25399,-0.67968 0.49222,-0.55079 0.49222,-1.46485 0,-0.77344 -0.37503,-1.3125 -0.37502,-0.53906 -1.08991,-0.78515 -0.70317,-0.2461 -3.0705,-0.2461 z m 13.82899,-6.64453 v -3.04687 h 3.29318 v 3.04687 z m 0,14.13281 v -12.44531 h 3.29318 V 436.41 Z m 5.90662,-6.39843 q 0,-1.64063 0.80865,-3.17579 0.80864,-1.53515 2.2853,-2.34375 1.48837,-0.80859 3.31661,-0.80859 2.8244,0 4.6292,1.83984 1.8048,1.82813 1.8048,4.62891 0,2.82422 -1.82824,4.6875 -1.81652,1.85156 -4.58232,1.85156 -1.71104,0 -3.26974,-0.77343 -1.54697,-0.77344 -2.35561,-2.26172 -0.80865,-1.5 -0.80865,-3.64453 z m 3.37521,0.17578 q 0,1.85156 0.87897,2.83593 0.87896,0.98438 2.1681,0.98438 1.28914,0 2.15639,-0.98438 0.87896,-0.98437 0.87896,-2.85937 0,-1.82813 -0.87896,-2.8125 -0.86725,-0.98438 -2.15639,-0.98438 -1.28914,0 -2.1681,0.98438 -0.87897,0.98437 -0.87897,2.83594 z m 11.80153,-6.22266 h 3.03535 v 1.69922 q 1.629,-1.98047 3.87915,-1.98047 1.19538,0 2.07434,0.49219 0.87897,0.49219 1.4415,1.48828 0.82037,-0.99609 1.76964,-1.48828 0.94928,-0.49219 2.02747,-0.49219 1.37118,0 2.32046,0.5625 0.94928,0.55078 1.41806,1.62891 0.33987,0.79687 0.33987,2.57812 V 436.41 h -3.29318 v -7.11328 q 0,-1.85156 -0.33986,-2.39062 -0.45706,-0.70313 -1.40634,-0.70313 -0.69145,0 -1.30087,0.42188 -0.60941,0.42187 -0.87896,1.24218 -0.26955,0.8086 -0.26955,2.56641 V 436.41 h -3.29317 v -6.82031 q 0,-1.81641 -0.17579,-2.34375 -0.1758,-0.52734 -0.55082,-0.78516 -0.3633,-0.25781 -0.99616,-0.25781 -0.76176,0 -1.37118,0.41016 -0.60941,0.41015 -0.87896,1.18359 -0.25783,0.77344 -0.25783,2.56641 V 436.41 h -3.29317 z m 24.04838,3.79688 -2.98847,-0.53907 q 0.50394,-1.80468 1.73448,-2.67187 1.23055,-0.86719 3.65648,-0.86719 2.20327,0 3.28146,0.52734 1.07819,0.51563 1.51181,1.32422 0.44534,0.79688 0.44534,2.94141 l -0.0351,3.84375 q 0,1.64062 0.15235,2.42578 0.16407,0.77344 0.59769,1.66406 h -3.25801 q -0.12892,-0.32812 -0.31643,-0.97265 -0.082,-0.29297 -0.1172,-0.38672 -0.8438,0.82031 -1.8048,1.23047 -0.96099,0.41015 -2.05091,0.41015 -1.92199,0 -3.03534,-1.04297 -1.10163,-1.04296 -1.10163,-2.63671 0,-1.05469 0.50393,-1.875 0.50394,-0.83204 1.40634,-1.26563 0.91412,-0.44531 2.62517,-0.77344 2.30873,-0.43359 3.19942,-0.80859 v -0.32813 q 0,-0.94921 -0.46878,-1.34765 -0.46878,-0.41016 -1.76965,-0.41016 -0.87896,0 -1.37118,0.35156 -0.49221,0.33985 -0.79692,1.20704 z m 4.40653,2.67187 q -0.63286,0.21094 -2.00404,0.50391 -1.37118,0.29297 -1.79308,0.57422 -0.64457,0.45703 -0.64457,1.16015 0,0.69141 0.51566,1.19531 0.51566,0.50391 1.31258,0.50391 0.89068,0 1.69933,-0.58594 0.59769,-0.44531 0.7852,-1.08984 0.12892,-0.42188 0.12892,-1.60547 z m 5.32064,2.42578 3.3049,-0.5039 q 0.21095,0.96093 0.85552,1.46484 0.64457,0.49219 1.8048,0.49219 1.27743,0 1.922,-0.46875 0.43362,-0.32813 0.43362,-0.87891 0,-0.375 -0.23439,-0.62109 -0.24611,-0.23438 -1.10163,-0.4336 -3.98463,-0.8789 -5.0511,-1.60547 -1.47666,-1.00781 -1.47666,-2.80078 0,-1.61718 1.27743,-2.71875 1.27742,-1.10156 3.96118,-1.10156 2.55485,0 3.79712,0.83203 1.24226,0.83203 1.71104,2.46094 l -3.10566,0.57422 q -0.19923,-0.72656 -0.76177,-1.11328 -0.55081,-0.38672 -1.58213,-0.38672 -1.30086,0 -1.8634,0.36328 -0.37502,0.25781 -0.37502,0.66797 0,0.35156 0.32814,0.59765 0.44535,0.32813 3.07051,0.92579 2.63688,0.59765 3.67992,1.46484 1.03131,0.87891 1.03131,2.44922 0,1.71094 -1.42977,2.9414 -1.42978,1.23047 -4.23074,1.23047 -2.54313,0 -4.0315,-1.03125 -1.47666,-1.03125 -1.93372,-2.80078 z m 13.3485,0 3.30489,-0.5039 q 0.21095,0.96093 0.85553,1.46484 0.64457,0.49219 1.8048,0.49219 1.27742,0 1.92199,-0.46875 0.43362,-0.32813 0.43362,-0.87891 0,-0.375 -0.23439,-0.62109 -0.24611,-0.23438 -1.10163,-0.4336 -3.98462,-0.8789 -5.0511,-1.60547 -1.47665,-1.00781 -1.47665,-2.80078 0,-1.61718 1.27742,-2.71875 1.27743,-1.10156 3.96119,-1.10156 2.55485,0 3.79711,0.83203 1.24227,0.83203 1.71105,2.46094 l -3.10567,0.57422 q -0.19923,-0.72656 -0.76176,-1.11328 -0.55082,-0.38672 -1.58213,-0.38672 -1.30087,0 -1.8634,0.36328 -0.37503,0.25781 -0.37503,0.66797 0,0.35156 0.32815,0.59765 0.44534,0.32813 3.07051,0.92579 2.63688,0.59765 3.67991,1.46484 1.03132,0.87891 1.03132,2.44922 0,1.71094 -1.42978,2.9414 -1.42978,1.23047 -4.23073,1.23047 -2.54313,0 -4.03151,-1.03125 -1.47665,-1.03125 -1.93371,-2.80078 z M 305.3075,436.41 h -3.29318 v -12.44531 h 3.05879 v 1.76953 q 0.7852,-1.2539 1.40633,-1.65234 0.63286,-0.39844 1.42978,-0.39844 1.12507,0 2.16811,0.62109 l -1.0196,2.8711 q -0.83208,-0.53906 -1.54697,-0.53906 -0.69145,0 -1.17195,0.38671 -0.4805,0.375 -0.76177,1.3711 -0.26954,0.99609 -0.26954,4.17187 z m 13.39538,-3.96093 3.28145,0.55078 q -0.63285,1.80468 -2.00403,2.7539 -1.35946,0.9375 -3.41037,0.9375 -3.2463,0 -4.80499,-2.12109 -1.23054,-1.69922 -1.23054,-4.28906 0,-3.09375 1.61728,-4.83985 1.61729,-1.75781 4.0901,-1.75781 2.77752,0 4.38309,1.83984 1.60557,1.82813 1.53526,5.61329 h -8.25052 q 0.0352,1.46484 0.79692,2.28515 0.76177,0.8086 1.89856,0.8086 0.77349,0 1.30086,-0.42188 0.52738,-0.42187 0.79693,-1.35937 z m 0.18751,-3.32813 q -0.0352,-1.42969 -0.73833,-2.16797 -0.70317,-0.75 -1.71104,-0.75 -1.0782,0 -1.78137,0.78516 -0.70316,0.78515 -0.69145,2.13281 z m 17.36828,7.28906 h -3.05879 v -1.82812 q -0.76176,1.0664 -1.8048,1.59375 -1.03131,0.51562 -2.08607,0.51562 -2.14466,0 -3.67992,-1.72265 -1.52353,-1.73438 -1.52353,-4.82813 0,-3.16406 1.48838,-4.80469 1.48837,-1.65234 3.76195,-1.65234 2.08607,0 3.6096,1.73438 v -6.1875 h 3.29318 z m -8.78962,-6.49218 q 0,1.99218 0.55082,2.88281 0.79692,1.28906 2.2267,1.28906 1.13679,0 1.93372,-0.96094 0.79692,-0.97265 0.79692,-2.89453 0,-2.14453 -0.77348,-3.08203 -0.77349,-0.94922 -1.9806,-0.94922 -1.17195,0 -1.96887,0.9375 -0.78521,0.92578 -0.78521,2.77735 z m 20.22783,6.49218 v -1.86328 q -0.67973,0.9961 -1.79308,1.57031 -1.10163,0.57422 -2.33218,0.57422 -1.25398,0 -2.25014,-0.55078 -0.99616,-0.55078 -1.4415,-1.54687 -0.44534,-0.9961 -0.44534,-2.75391 v -7.875 h 3.29318 v 5.71875 q 0,2.625 0.17579,3.22266 0.18751,0.58593 0.66801,0.9375 0.4805,0.33984 1.21883,0.33984 0.8438,0 1.51181,-0.45703 0.66801,-0.46875 0.91412,-1.14844 0.24611,-0.6914 0.24611,-3.36328 v -5.25 h 3.29318 V 436.41 Z m 17.3214,-8.76562 -3.2463,0.58594 q -0.16407,-0.97266 -0.75005,-1.46485 -0.57425,-0.49219 -1.50009,-0.49219 -1.23055,0 -1.96888,0.85547 -0.7266,0.84375 -0.7266,2.83594 0,2.21484 0.73832,3.12891 0.75005,0.91406 2.00404,0.91406 0.93755,0 1.53525,-0.52734 0.59769,-0.53907 0.8438,-1.83985 l 3.23458,0.55078 q -0.50394,2.22657 -1.93372,3.36328 -1.42977,1.13672 -3.83227,1.13672 -2.73064,0 -4.35965,-1.72265 -1.61729,-1.72266 -1.61729,-4.76953 0,-3.08204 1.62901,-4.79297 1.62901,-1.72266 4.40653,-1.72266 2.27358,0 3.6096,0.98438 1.34774,0.97265 1.93372,2.97656 z m 8.20364,-3.67969 v 2.625 h -2.25014 v 5.01563 q 0,1.52343 0.0586,1.78125 0.0703,0.24609 0.29299,0.41015 0.23439,0.16406 0.56254,0.16406 0.45706,0 1.3243,-0.3164 l 0.28127,2.55469 q -1.14851,0.49218 -2.60173,0.49218 -0.89068,0 -1.60557,-0.29297 -0.71489,-0.30468 -1.05475,-0.77343 -0.32815,-0.48047 -0.45706,-1.28907 -0.10548,-0.57421 -0.10548,-2.32031 v -5.42578 h -1.51181 v -2.625 h 1.51181 v -2.47266 l 3.3049,-1.92187 v 4.39453 z m 2.2853,-1.6875 v -3.04687 h 3.29317 v 3.04687 z m 0,14.13281 v -12.44531 h 3.29317 V 436.41 Z m 5.90663,-6.39843 q 0,-1.64063 0.80864,-3.17579 0.80865,-1.53515 2.2853,-2.34375 1.48838,-0.80859 3.31662,-0.80859 2.82439,0 4.62919,1.83984 1.8048,1.82813 1.8048,4.62891 0,2.82422 -1.82824,4.6875 -1.81652,1.85156 -4.58231,1.85156 -1.71105,0 -3.26974,-0.77343 -1.54697,-0.77344 -2.35562,-2.26172 -0.80864,-1.5 -0.80864,-3.64453 z m 3.37521,0.17578 q 0,1.85156 0.87896,2.83593 0.87896,0.98438 2.16811,0.98438 1.28914,0 2.15638,-0.98438 0.87896,-0.98437 0.87896,-2.85937 0,-1.82813 -0.87896,-2.8125 -0.86724,-0.98438 -2.15638,-0.98438 -1.28915,0 -2.16811,0.98438 -0.87896,0.98437 -0.87896,2.83594 z m 23.36865,6.22265 h -3.29318 v -6.35156 q 0,-2.01562 -0.21095,-2.60156 -0.21095,-0.59766 -0.69145,-0.92578 -0.46878,-0.32813 -1.13679,-0.32813 -0.85552,0 -1.53525,0.46875 -0.67973,0.46875 -0.93756,1.24219 -0.24611,0.77344 -0.24611,2.85937 V 436.41 h -3.29317 v -12.44531 h 3.05878 v 1.82813 q 1.62901,-2.10938 4.10182,-2.10938 1.08992,0 1.99232,0.39844 0.9024,0.38672 1.35946,0.99609 0.46878,0.60938 0.64457,1.38281 0.18751,0.77344 0.18751,2.21485 z"
         id="text26"
         style="font-weight:bold;font-size:24px;font-family:'Nimbus Sans';text-anchor:middle;white-space:pre;stroke:none;fill:#000000"
         aria-label="% Biomass reduction" />
      <path
         d="m -44.275541,-17.179688 h 6.340145 q 2.144633,0 3.269687,0.328125 1.51179,0.445313 2.589967,1.582031 1.078176,1.136719 1.640703,2.789063 0.562526,1.640625 0.562526,4.0546876 0,2.1210938 -0.527368,3.6562501 -0.644562,1.875 -1.839932,3.0351563 -0.902386,0.87890623 -2.437616,1.37109374 Q -35.825921,0 -37.747887,0 h -6.527654 z m 3.468915,2.90625 v 11.3789067 h 2.589967 q 1.453194,0 2.097756,-0.1640625 0.84379,-0.2109375 1.394597,-0.7148438 0.562527,-0.5039062 0.914106,-1.6523437 0.351579,-1.1601563 0.351579,-3.1523439 0,-1.9921878 -0.351579,-3.0585938 -0.351579,-1.066406 -0.984422,-1.664062 -0.632842,-0.597657 -1.605545,-0.808594 -0.726597,-0.164063 -2.847791,-0.164063 z m 13.090466,7.8750004 q 0,-1.640625 0.808632,-3.1757813 0.808632,-1.5351561 2.285265,-2.3437501 1.488352,-0.808594 3.316564,-0.808594 2.824353,0 4.629126,1.839844 1.804773,1.8281251 1.804773,4.6289064 0,2.8242188 -1.828211,4.6875001 -1.816493,1.8515625 -4.582249,1.8515625 -1.711019,0 -3.269687,-0.77343751 -1.546949,-0.77343749 -2.355581,-2.26171879 -0.808632,-1.5 -0.808632,-3.6445313 z m 3.37516,0.1757812 q 0,1.8515626 0.878948,2.8359376 0.878949,0.984375 2.168072,0.984375 1.289124,0 2.156353,-0.984375 0.878948,-0.984375 0.878948,-2.8593751 0,-1.828125 -0.878948,-2.8125 -0.867229,-0.9843751 -2.156353,-0.9843751 -1.289123,0 -2.168072,0.9843751 -0.878948,0.984375 -0.878948,2.8359375 z m 17.7547518,-6.2226566 v 2.6250003 h -2.2501069 v 5.0156251 q 0,1.5234375 0.058597,1.78125 0.070316,0.2460938 0.2929827,0.4101563 0.2343862,0.1640625 0.5625267,0.1640625 0.457053,0 1.3242817,-0.3164062 l 0.2812634,2.5546875 Q -7.4651962,0.28125 -8.9183902,0.28125 q -0.8906674,0 -1.6055448,-0.29296875 -0.714878,-0.30468751 -1.054738,-0.77343751 Q -11.906814,-1.265625 -12.035726,-2.0742188 -12.1412,-2.6484375 -12.1412,-4.3945313 v -5.4257814 h -1.51179 v -2.6250003 h 1.51179 v -2.472656 l 3.3048449,-1.921875 v 4.394531 z m 7.7933405,8.8945317 3.3048446,-0.5039063 q 0.2109475,0.9609375 0.8555094,1.4648438 0.6445619,0.4921875 1.8047732,0.4921875 1.2774045,0 1.9219664,-0.46875 0.4336143,-0.328125 0.4336143,-0.8789063 0,-0.375 -0.2343861,-0.6210937 Q 9.0473087,-4.3007813 8.1917992,-4.5000001 4.2072349,-5.3789063 3.140778,-6.1054689 1.6641453,-7.1132814 1.6641453,-8.9062502 q 0,-1.6171878 1.2774044,-2.7187498 1.2774045,-1.101563 3.9611258,-1.101563 2.5548089,0 3.7970555,0.832032 1.242246,0.832031 1.711019,2.4609371 L 9.3051334,-8.8593752 Q 9.1059052,-9.5859377 8.5433785,-9.9726564 7.992571,-10.359375 6.961272,-10.359375 q -1.3008431,0 -1.8633698,0.3632811 -0.3750178,0.2578125 -0.3750178,0.6679687 0,0.3515625 0.3281406,0.5976563 0.4453337,0.328125 3.0704584,0.9257813 2.6368436,0.5976562 3.6798626,1.4648437 1.031299,0.8789063 1.031299,2.4492188 0,1.7109376 -1.429756,2.94140633 Q 9.9731339,0.28125 7.1722195,0.28125 4.6291299,0.28125 3.140778,-0.75000001 1.6641453,-1.78125 1.2070923,-3.5507813 Z M 15.715593,-14.132813 v -3.046875 h 3.293125 v 3.046875 z m 0,14.132813 v -12.445313 h 3.293125 V 0 Z m 5.344,0 v -2.5664063 l 4.664284,-5.3554688 q 1.148492,-1.3125001 1.6993,-1.8632813 -0.574246,0.035156 -1.511791,0.046875 l -4.39474,0.023437 v -2.7304691 h 10.289552 v 2.332032 L 27.048159,-4.6289063 25.372298,-2.8125 q 1.371159,-0.082031 1.6993,-0.082031 h 5.097898 V 0 Z m 20.532228,-3.9609376 3.281406,0.5507813 Q 44.240384,-1.6054688 42.869225,-0.65625001 41.509786,0.28125 39.458907,0.28125 q -3.246248,0 -4.804916,-2.1210938 -1.230527,-1.6992188 -1.230527,-4.2890626 0,-3.09375 1.617264,-4.8398436 1.617264,-1.757813 4.090038,-1.757813 2.777476,0 4.383021,1.839844 1.605545,1.8281251 1.535229,5.6132814 h -8.250392 q 0.03516,1.4648438 0.796913,2.2851563 0.761755,0.8085938 1.898528,0.8085938 0.773474,0 1.300843,-0.421875 0.527369,-0.4218751 0.796913,-1.3593751 z m 0.187509,-3.328125 q -0.03516,-1.4296876 -0.738317,-2.1679688 -0.703158,-0.7499996 -1.711019,-0.7499996 -1.078176,0 -1.781334,0.7851558 -0.703159,0.7851563 -0.691439,2.1328126 z"
         id="text27"
         style="font-weight:bold;font-size:24px;font-family:'Nimbus Sans';text-anchor:middle;white-space:pre;stroke:none;fill:#000000"
         transform="rotate(-90,132.195,102.745)"
         aria-label="Dot size" />
      <line
         x1="346.97653"
         y1="328.65424"
         x2="374.18652"
         y2="328.65424"
         style="stroke:#a00000;stroke-width:4.27;stroke-linecap:butt"
         id="line27" />
      <line
         x1="346.97653"
         y1="353.16422"
         x2="374.18652"
         y2="353.16422"
         style="stroke:#00c000;stroke-width:4.27;stroke-linecap:butt"
         id="line28" />
      <path
         d="m 401.81527,316.09 v -13.74375 h 1.81749 v 12.12187 h 6.76403 V 316.09 Z m 10.53953,-11.80313 v -1.94062 h 1.68632 v 1.94062 z m 0,11.80313 v -9.95625 h 1.68632 V 316.09 Z m 4.25329,0 v -9.95625 h 1.51769 v 1.41562 q 1.09611,-1.64062 3.16654,-1.64062 0.89937,0 1.64885,0.32812 0.75885,0.31875 1.13358,0.84375 0.37474,0.525 0.52464,1.24688 0.0937,0.46875 0.0937,1.64062 V 316.09 h -1.68632 v -6.05625 q 0,-1.03125 -0.19674,-1.5375 -0.19674,-0.51563 -0.70263,-0.81563 -0.49653,-0.30937 -1.17106,-0.30937 -1.07738,0 -1.86433,0.68437 -0.77758,0.68438 -0.77758,2.59688 v 5.4375 z m 17.48156,-3.20625 1.74253,0.21562 q -0.41221,1.52813 -1.52706,2.37188 -1.11485,0.84375 -2.84801,0.84375 -2.18286,0 -3.46634,-1.34063 -1.27411,-1.35 -1.27411,-3.77812 0,-2.5125 1.29285,-3.9 1.29285,-1.3875 3.35391,-1.3875 1.99549,0 3.26023,1.35937 1.26474,1.35938 1.26474,3.825 0,0.15 -0.009,0.45 h -7.41982 q 0.0937,1.64063 0.92748,2.5125 0.83379,0.87188 2.0798,0.87188 0.92747,0 1.58327,-0.4875 0.65579,-0.4875 1.0399,-1.55625 z m -5.53677,-2.72813 h 5.5555 q -0.11242,-1.25625 -0.63705,-1.88437 -0.80569,-0.975 -2.08917,-0.975 -1.16169,0 -1.95801,0.77812 -0.78695,0.77813 -0.87127,2.08125 z m 15.88892,4.70625 q -0.93684,0.79688 -1.80811,1.125 -0.8619,0.32813 -1.85496,0.32813 -1.63948,0 -2.52012,-0.79688 -0.88063,-0.80625 -0.88063,-2.05312 0,-0.73125 0.32789,-1.33125 0.33727,-0.60938 0.87127,-0.975 0.54337,-0.36563 1.2179,-0.55313 0.49653,-0.13125 1.49896,-0.25312 2.04232,-0.24375 3.00728,-0.58125 0.009,-0.34688 0.009,-0.44063 0,-1.03125 -0.47779,-1.45312 -0.64642,-0.57188 -1.92053,-0.57188 -1.1898,0 -1.76128,0.42188 -0.5621,0.4125 -0.83379,1.47187 l -1.64885,-0.225 q 0.22484,-1.05937 0.74011,-1.70625 0.51527,-0.65625 1.48959,-1.00312 0.97432,-0.35625 2.2578,-0.35625 1.27411,0 2.07043,0.3 0.79632,0.3 1.17106,0.75937 0.37474,0.45 0.52463,1.14375 0.0843,0.43125 0.0843,1.55625 v 2.25 q 0,2.35313 0.10305,2.98125 0.11242,0.61875 0.43095,1.19063 h -1.76127 q -0.26232,-0.525 -0.33727,-1.22813 z m -0.14052,-3.76875 q -0.91811,0.375 -2.75433,0.6375 -1.0399,0.15 -1.47085,0.3375 -0.43095,0.1875 -0.66516,0.55313 -0.23422,0.35625 -0.23422,0.79687 0,0.675 0.5059,1.125 0.51527,0.45 1.49896,0.45 0.97432,0 1.73316,-0.42187 0.75885,-0.43125 1.11485,-1.17188 0.27169,-0.57187 0.27169,-1.6875 z m 4.30012,4.99688 v -9.95625 h 1.51769 v 1.50937 q 0.58085,-1.05937 1.06801,-1.39687 0.49653,-0.3375 1.08674,-0.3375 0.85253,0 1.73317,0.54375 l -0.58085,1.56562 q -0.61832,-0.36562 -1.23663,-0.36562 -0.55274,0 -0.99306,0.3375 -0.44032,0.32812 -0.62769,0.91875 -0.28105,0.9 -0.28105,1.96875 v 5.2125 z m 11.33585,-4.41563 1.71443,-0.15 q 0.12179,1.03125 0.5621,1.69688 0.44969,0.65625 1.38654,1.06875 0.93684,0.40312 2.1079,0.40312 1.0399,0 1.83622,-0.30937 0.79632,-0.30938 1.18043,-0.84375 0.39348,-0.54375 0.39348,-1.18125 0,-0.64688 -0.37474,-1.125 -0.37474,-0.4875 -1.23664,-0.81563 -0.55274,-0.21562 -2.44517,-0.66562 -1.89243,-0.45938 -2.65128,-0.8625 -0.98369,-0.51563 -1.47085,-1.275 -0.47779,-0.76875 -0.47779,-1.71563 0,-1.04062 0.59021,-1.94062 0.59022,-0.90938 1.7238,-1.37813 1.13359,-0.46875 2.52012,-0.46875 1.52706,0 2.68875,0.49688 1.17106,0.4875 1.79875,1.44375 0.62768,0.95625 0.67453,2.16562 l -1.74254,0.13125 q -0.14053,-1.30312 -0.95558,-1.96875 -0.80569,-0.66562 -2.38896,-0.66562 -1.64885,0 -2.4077,0.60937 -0.74948,0.6 -0.74948,1.45313 0,0.74062 0.53401,1.21875 0.52463,0.47812 2.73559,0.98437 2.22033,0.49688 3.04475,0.87188 1.19917,0.55312 1.77064,1.40625 0.57148,0.84375 0.57148,1.95 0,1.09687 -0.62769,2.07187 -0.62769,0.96563 -1.80811,1.50938 -1.17106,0.53437 -2.64191,0.53437 -1.86433,0 -3.12907,-0.54375 -1.25537,-0.54375 -1.97675,-1.63125 -0.712,-1.09687 -0.74947,-2.475 z m 19.69251,0.76875 1.65822,0.21563 q -0.27168,1.71562 -1.3959,2.69062 -1.11485,0.96563 -2.74496,0.96563 -2.04233,0 -3.28833,-1.33125 -1.23664,-1.34063 -1.23664,-3.83438 0,-1.6125 0.534,-2.82187 0.53401,-1.20938 1.62075,-1.80938 1.09611,-0.60937 2.37959,-0.60937 1.62074,0 2.65128,0.825 1.03053,0.81562 1.32095,2.325 l -1.63948,0.25312 q -0.23421,-1.00312 -0.8338,-1.50937 -0.59021,-0.50625 -1.43337,-0.50625 -1.27411,0 -2.07043,0.91875 -0.79632,0.90937 -0.79632,2.8875 0,2.00625 0.76821,2.91562 0.76822,0.90938 2.00485,0.90938 0.99306,0 1.65822,-0.60938 0.66516,-0.60937 0.84316,-1.875 z m 9.59332,2.41875 q -0.93685,0.79688 -1.80811,1.125 -0.8619,0.32813 -1.85496,0.32813 -1.63948,0 -2.52012,-0.79688 -0.88064,-0.80625 -0.88064,-2.05312 0,-0.73125 0.3279,-1.33125 0.33727,-0.60938 0.87127,-0.975 0.54337,-0.36563 1.2179,-0.55313 0.49653,-0.13125 1.49895,-0.25312 2.04233,-0.24375 3.00728,-0.58125 0.009,-0.34688 0.009,-0.44063 0,-1.03125 -0.47779,-1.45312 -0.64642,-0.57188 -1.92054,-0.57188 -1.18979,0 -1.76127,0.42188 -0.56211,0.4125 -0.83379,1.47187 l -1.64885,-0.225 q 0.22484,-1.05937 0.74011,-1.70625 0.51526,-0.65625 1.48958,-1.00312 0.97432,-0.35625 2.2578,-0.35625 1.27412,0 2.07043,0.3 0.79632,0.3 1.17106,0.75937 0.37474,0.45 0.52464,1.14375 0.0843,0.43125 0.0843,1.55625 v 2.25 q 0,2.35313 0.10306,2.98125 0.11242,0.61875 0.43095,1.19063 h -1.76128 q -0.26231,-0.525 -0.33726,-1.22813 z m -0.14053,-3.76875 q -0.91811,0.375 -2.75433,0.6375 -1.0399,0.15 -1.47085,0.3375 -0.43095,0.1875 -0.66516,0.55313 -0.23421,0.35625 -0.23421,0.79687 0,0.675 0.5059,1.125 0.51526,0.45 1.49895,0.45 0.97432,0 1.73317,-0.42187 0.75885,-0.43125 1.11485,-1.17188 0.27168,-0.57187 0.27168,-1.6875 z m 4.28139,4.99688 v -13.74375 h 1.68633 V 316.09 Z m 11.111,-3.20625 1.74254,0.21562 q -0.41222,1.52813 -1.52706,2.37188 -1.11485,0.84375 -2.84802,0.84375 -2.18285,0 -3.46633,-1.34063 -1.27411,-1.35 -1.27411,-3.77812 0,-2.5125 1.29285,-3.9 1.29284,-1.3875 3.35391,-1.3875 1.99548,0 3.26022,1.35937 1.26475,1.35938 1.26475,3.825 0,0.15 -0.009,0.45 h -7.41983 q 0.0937,1.64063 0.92748,2.5125 0.83379,0.87188 2.0798,0.87188 0.92748,0 1.58327,-0.4875 0.65579,-0.4875 1.0399,-1.55625 z m -5.53676,-2.72813 h 5.5555 q -0.11242,-1.25625 -0.63706,-1.88437 -0.80569,-0.975 -2.08917,-0.975 -1.16169,0 -1.95801,0.77812 -0.78695,0.77813 -0.87126,2.08125 z"
         id="text28"
         style="font-size:19.2px;font-family:'Nimbus Sans';white-space:pre;stroke:none;fill:#000000"
         transform="translate(-21.363459,19.554227)"
         aria-label="Linear Scale" />
      <path
         d="m 400.3819,358.60999 5.27453,-13.74375 h 1.95804 l 5.62117,13.74375 h -2.07046 l -1.60204,-4.1625 h -5.74296 l -1.50835,4.1625 z m 3.96292,-5.64375 h 4.65621 l -1.4334,-3.80625 q -0.65581,-1.73438 -0.97434,-2.85 -0.26232,1.32187 -0.74012,2.625 z m 10.26801,5.64375 v -13.74375 h 5.15274 q 1.57392,0 2.52015,0.42187 0.9556,0.4125 1.48961,1.28438 0.54338,0.8625 0.54338,1.80937 0,0.88125 -0.47779,1.65938 -0.4778,0.77812 -1.44277,1.25625 1.24602,0.36562 1.9112,1.24687 0.67454,0.88125 0.67454,2.08125 0,0.96563 -0.41222,1.8 -0.40285,0.825 -1.00244,1.275 -0.5996,0.45 -1.50835,0.68438 -0.89939,0.225 -2.211,0.225 z m 1.81751,-7.96875 h 2.96985 q 1.20855,0 1.73319,-0.15938 0.69328,-0.20625 1.03992,-0.68437 0.35601,-0.47813 0.35601,-1.2 0,-0.68438 -0.3279,-1.2 -0.3279,-0.525 -0.93686,-0.7125 -0.60896,-0.19688 -2.08921,-0.19688 h -2.745 z m 0,6.34687 h 3.41954 q 0.88065,0 1.23666,-0.0656 0.6277,-0.1125 1.04929,-0.375 0.42158,-0.2625 0.69327,-0.75938 0.27169,-0.50625 0.27169,-1.1625 0,-0.76875 -0.39348,-1.33125 -0.39348,-0.57187 -1.09613,-0.79687 -0.69327,-0.23438 -2.00488,-0.23438 h -3.17596 z m 20.85454,-3.19687 1.81751,0.45937 q -0.57148,2.24063 -2.06109,3.42188 -1.48024,1.17187 -3.62566,1.17187 -2.22036,0 -3.61628,-0.9 -1.38656,-0.90937 -2.11731,-2.625 -0.72139,-1.71562 -0.72139,-3.68437 0,-2.14688 0.81507,-3.74063 0.82444,-1.60312 2.33279,-2.42812 1.51772,-0.83438 3.33523,-0.83438 2.06109,0 3.46639,1.05 1.40529,1.05 1.95804,2.95313 l -1.78941,0.42187 q -0.4778,-1.5 -1.38655,-2.18437 -0.90876,-0.68438 -2.28595,-0.68438 -1.58329,0 -2.65132,0.75938 -1.05865,0.75937 -1.48961,2.04375 -0.43095,1.275 -0.43095,2.63437 0,1.75313 0.5059,3.06563 0.51528,1.30312 1.59267,1.95 1.07739,0.64687 2.33278,0.64687 1.52709,0 2.58574,-0.88125 1.05866,-0.88125 1.4334,-2.61562 z m 3.8505,-6.98438 v -1.94062 h 1.68635 v 1.94062 z m 0,11.80313 v -9.95625 h 1.68635 v 9.95625 z m 4.25335,0 v -9.95625 h 1.51772 v 1.41562 q 1.09613,-1.64062 3.16659,-1.64062 0.89939,0 1.64888,0.32812 0.75886,0.31875 1.1336,0.84375 0.37475,0.525 0.52464,1.24688 0.0937,0.46875 0.0937,1.64062 v 6.12188 h -1.68635 v -6.05625 q 0,-1.03125 -0.19674,-1.5375 -0.19674,-0.51563 -0.70265,-0.81563 -0.49654,-0.30937 -1.17108,-0.30937 -1.07739,0 -1.86435,0.68437 -0.7776,0.68438 -0.7776,2.59688 v 5.4375 z m 17.12584,0 v -1.25625 q -0.94623,1.48125 -2.78248,1.48125 -1.18982,0 -2.19226,-0.65625 -0.99307,-0.65625 -1.54582,-1.82813 -0.54338,-1.18125 -0.54338,-2.70937 0,-1.49063 0.49654,-2.7 0.49653,-1.21875 1.48961,-1.86563 0.99307,-0.64687 2.22036,-0.64687 0.89939,0 1.60203,0.38437 0.70265,0.375 1.14297,0.98438 v -4.93125 h 1.67699 v 13.74375 z m -5.33075,-4.96875 q 0,1.9125 0.8057,2.85937 0.80571,0.94688 1.90183,0.94688 1.1055,0 1.87373,-0.9 0.77759,-0.90938 0.77759,-2.76563 0,-2.04375 -0.78696,-3 -0.78696,-0.95625 -1.9393,-0.95625 -1.12424,0 -1.8831,0.91875 -0.74949,0.91875 -0.74949,2.89688 z m 16.35761,1.7625 1.74256,0.21562 q -0.41222,1.52813 -1.52708,2.37188 -1.11487,0.84375 -2.84806,0.84375 -2.18289,0 -3.46639,-1.34063 -1.27413,-1.35 -1.27413,-3.77812 0,-2.5125 1.29287,-3.9 1.29287,-1.3875 3.35396,-1.3875 1.99552,0 3.26028,1.35937 1.26477,1.35938 1.26477,3.825 0,0.15 -0.009,0.45 h -7.41995 q 0.0937,1.64063 0.9275,2.5125 0.8338,0.87188 2.07983,0.87188 0.92749,0 1.58329,-0.4875 0.65581,-0.4875 1.03992,-1.55625 z m -5.53685,-2.72813 h 5.55559 q -0.11243,-1.25625 -0.63707,-1.88437 -0.8057,-0.975 -2.0892,-0.975 -1.16171,0 -1.95804,0.77812 -0.78696,0.77813 -0.87128,2.08125 z m 8.27248,5.93438 3.63503,-5.175 -3.36334,-4.78125 h 2.10794 l 1.52709,2.33437 q 0.43095,0.66563 0.69328,1.11563 0.41222,-0.61875 0.75885,-1.09688 l 1.67699,-2.35312 h 2.01425 l -3.43828,4.6875 3.7006,5.26875 h -2.07046 l -2.04236,-3.09375 -0.54338,-0.83438 -2.61385,3.92813 z"
         id="text29"
         style="font-size:19.2px;font-family:'Nimbus Sans';white-space:pre;stroke:none;fill:#000000"
         transform="translate(-21.363459,1.554227)"
         aria-label="ABCindex" />
      <path
         d="m 83.394852,68.68 6.596255,-17.179686 h 2.448698 L 99.469562,68.68 H 96.880269 L 94.876788,63.476876 H 87.694719 L 85.808401,68.68 Z m 4.955978,-7.054687 h 5.822982 l -1.792588,-4.757812 q -0.820138,-2.167968 -1.218491,-3.562499 -0.328055,1.652343 -0.925585,3.281249 z M 101.19185,68.68 V 51.500314 h 6.44395 q 1.96833,0 3.15167,0.527344 1.19506,0.515625 1.86289,1.605469 0.67954,1.078124 0.67954,2.261718 0,1.101563 -0.59753,2.074219 -0.59753,0.972656 -1.8043,1.570312 1.55826,0.457031 2.39011,1.558594 0.84357,1.101562 0.84357,2.601562 0,1.207031 -0.51551,2.25 -0.5038,1.03125 -1.25364,1.59375 -0.74984,0.5625 -1.88632,0.855468 -1.12476,0.28125 -2.76504,0.28125 z m 2.27296,-9.960936 h 3.71405 q 1.5114,0 2.16751,-0.199219 0.867,-0.257813 1.30051,-0.855469 0.44521,-0.597656 0.44521,-1.5 0,-0.855468 -0.41007,-1.5 -0.41006,-0.656249 -1.17162,-0.890624 -0.76156,-0.246094 -2.61273,-0.246094 h -3.43286 z m 0,7.933593 h 4.27643 q 1.10133,0 1.54655,-0.08203 0.78499,-0.140625 1.31222,-0.468749 0.52723,-0.328125 0.867,-0.949219 0.33978,-0.632813 0.33978,-1.453125 0,-0.960937 -0.49209,-1.664062 -0.49208,-0.714844 -1.3708,-0.996094 -0.867,-0.292969 -2.50728,-0.292969 h -3.97181 z m 26.0804,-3.996094 2.27295,0.574219 q -0.71469,2.800781 -2.57758,4.277343 -1.85117,1.464844 -4.53419,1.464844 -2.77675,0 -4.52248,-1.125 -1.734,-1.136719 -2.64787,-3.28125 -0.90215,-2.144531 -0.90215,-4.605468 0,-2.683593 1.01931,-4.675781 1.03103,-2.003906 2.91735,-3.035156 1.89803,-1.042968 4.17099,-1.042968 2.57758,0 4.33502,1.312499 1.75744,1.3125 2.44869,3.691406 l -2.2378,0.527344 q -0.59753,-1.875 -1.73401,-2.730468 -1.13648,-0.855469 -2.85877,-0.855469 -1.98004,0 -3.3157,0.949219 -1.32394,0.949218 -1.86288,2.554687 -0.53895,1.59375 -0.53895,3.292968 0,2.191406 0.63268,3.832031 0.64439,1.628906 1.99176,2.4375 1.34737,0.808594 2.91735,0.808594 1.90975,0 3.23369,-1.101563 1.32394,-1.101562 1.79259,-3.269531 z m 4.81538,-8.730468 v -2.425781 h 2.10893 v 2.425781 z m 0,14.753905 V 56.234689 h 2.10893 V 68.68 Z m 5.31918,0 V 56.234689 h 1.89804 v 1.769531 q 1.3708,-2.050781 3.96009,-2.050781 1.12476,0 2.06206,0.410156 0.94902,0.398438 1.41767,1.054688 0.46865,0.656249 0.65611,1.558593 0.11716,0.585938 0.11716,2.050781 V 68.68 h -2.10892 v -7.570312 q 0,-1.289062 -0.24604,-1.921874 -0.24605,-0.644532 -0.87872,-1.019532 -0.62097,-0.386718 -1.46454,-0.386718 -1.34737,0 -2.33153,0.855468 -0.97245,0.855469 -0.97245,3.246094 V 68.68 Z m 21.41733,0 v -1.570312 q -1.18334,1.851562 -3.47973,1.851562 -1.48796,0 -2.7416,-0.820312 -1.24193,-0.820313 -1.93319,-2.285156 -0.67954,-1.476563 -0.67954,-3.386719 0,-1.863281 0.62096,-3.374999 0.62096,-1.523438 1.86289,-2.332031 1.24192,-0.808594 2.77675,-0.808594 1.12476,0 2.00348,0.480469 0.87872,0.46875 1.42939,1.230468 v -6.164062 h 2.09721 V 68.68 Z m -6.66655,-6.210937 q 0,2.390625 1.0076,3.574219 1.0076,1.183593 2.3784,1.183593 1.38252,0 2.34325,-1.124999 0.97245,-1.136719 0.97245,-3.457031 0,-2.554688 -0.98417,-3.75 -0.98416,-1.195313 -2.42526,-1.195313 -1.40595,0 -2.35497,1.148438 -0.9373,1.148437 -0.9373,3.621093 z m 20.45659,2.203125 2.17922,0.269531 q -0.51551,1.910156 -1.90975,2.964844 -1.39423,1.054687 -3.56174,1.054687 -2.72989,0 -4.33502,-1.675781 -1.59341,-1.6875 -1.59341,-4.722656 0,-3.140624 1.61684,-4.874999 1.61685,-1.734375 4.19443,-1.734375 2.49556,0 4.07725,1.699218 1.5817,1.699219 1.5817,4.78125 0,0.1875 -0.0117,0.5625 h -9.27928 q 0.11717,2.050781 1.15991,3.140625 1.04275,1.089843 2.60101,1.089843 1.15991,0 1.98005,-0.609375 0.82014,-0.609374 1.30051,-1.945312 z m -6.92431,-3.410156 h 6.94774 q -0.1406,-1.570312 -0.79671,-2.355468 -1.00759,-1.21875 -2.61272,-1.21875 -1.45282,0 -2.4487,0.972656 -0.98417,0.972656 -1.08961,2.601562 z m 10.34546,7.417968 4.54591,-6.468749 -4.20614,-5.976562 h 2.63616 l 1.90975,2.917968 q 0.53895,0.832032 0.867,1.394531 0.51552,-0.773437 0.94902,-1.371093 l 2.09721,-2.941406 h 2.519 l -4.29987,5.859374 4.62792,6.585937 h -2.58929 l -2.55415,-3.867187 -0.67954,-1.042969 -3.26884,4.910156 z"
         id="text30"
         style="font-size:24px;font-family:'Nimbus Sans';white-space:pre;stroke:none;fill:#000000"
         transform="translate(10.5,16.5)"
         aria-label="ABCindex" />
      <path
         d="m 85.511539,12.334377 h 7.608869 q 2.573795,0 3.923982,0.39375 1.814315,0.534375 3.10824,1.898437 1.29393,1.364063 1.96903,3.346875 0.67509,1.96875 0.67509,4.865625 0,2.545312 -0.6329,4.3875 -0.77354,2.249999 -2.208118,3.642187 -1.082963,1.054687 -2.925406,1.645312 -1.378316,0.435938 -3.684887,0.435938 h -7.8339 z m 4.163078,3.4875 v 13.654686 h 3.108244 q 1.743992,0 2.517537,-0.196875 1.012641,-0.253125 1.67367,-0.857812 0.675094,-0.604688 1.097027,-1.982812 0.421934,-1.392188 0.421934,-3.782813 0,-2.390625 -0.421934,-3.670312 -0.421933,-1.279688 -1.181414,-1.996875 -0.75948,-0.717187 -1.92683,-0.970312 -0.871996,-0.196875 -3.417662,-0.196875 z m 15.709993,9.449999 q 0,-1.96875 0.97045,-3.810937 0.97044,-1.842188 2.74257,-2.8125 1.78618,-0.970313 3.98024,-0.970313 3.38953,0 5.55545,2.207813 2.16593,2.19375 2.16593,5.554687 0,3.389062 -2.19405,5.625 -2.17999,2.221875 -5.49921,2.221875 -2.05341,0 -3.92398,-0.928125 -1.85651,-0.928125 -2.82695,-2.714063 -0.97045,-1.8 -0.97045,-4.373437 z m 4.05056,0.210938 q 0,2.221875 1.05484,3.403124 1.05483,1.18125 2.60192,1.18125 1.54709,0 2.58786,-1.18125 1.05483,-1.181249 1.05483,-3.431249 0,-2.19375 -1.05483,-3.375 -1.04077,-1.18125 -2.58786,-1.18125 -1.54709,0 -2.60192,1.18125 -1.05484,1.18125 -1.05484,3.403125 z m 21.30765,-7.467188 v 3.15 h -2.70038 v 6.01875 q 0,1.828125 0.0703,2.1375 0.0844,0.295312 0.35162,0.492187 0.28129,0.196875 0.67509,0.196875 0.54851,0 1.58928,-0.379687 l 0.33755,3.065625 q -1.37832,0.590625 -3.12231,0.590625 -1.0689,0 -1.92683,-0.351563 -0.85793,-0.365625 -1.2658,-0.928125 -0.3938,-0.576562 -0.54851,-1.546875 -0.12658,-0.689062 -0.12658,-2.784374 v -6.510938 h -1.81432 v -3.15 h 1.81432 v -2.967187 l 3.96617,-2.30625 v 5.273437 z m 10.63272,0 h 3.68489 v 2.19375 q 0.71729,-1.125 1.9409,-1.828125 1.2236,-0.703125 2.71443,-0.703125 2.60193,0 4.41624,2.039063 1.81432,2.039062 1.81432,5.68125 0,3.740624 -1.82838,5.821874 -1.82838,2.067188 -4.4303,2.067188 -1.23768,0 -2.25032,-0.492188 -0.99857,-0.492187 -2.10966,-1.6875 v 7.523438 h -3.95212 z m 3.90992,7.214063 q 0,2.517187 0.99858,3.726562 0.99857,1.195312 2.43315,1.195312 1.37832,0 2.2925,-1.096875 0.91419,-1.110937 0.91419,-3.628124 0,-2.348438 -0.94231,-3.4875 -0.94232,-1.139063 -2.3347,-1.139063 -1.44864,0 -2.40502,1.125 -0.95639,1.110938 -0.95639,3.304688 z m 13.79723,7.720312 V 12.334377 h 3.95211 v 20.615624 z m 7.08849,-7.678125 q 0,-1.96875 0.97044,-3.810937 0.97045,-1.842188 2.74257,-2.8125 1.78619,-0.970313 3.98024,-0.970313 3.38953,0 5.55546,2.207813 2.16593,2.19375 2.16593,5.554687 0,3.389062 -2.19406,5.625 -2.17999,2.221875 -5.4992,2.221875 -2.05341,0 -3.92398,-0.928125 -1.85651,-0.928125 -2.82696,-2.714063 -0.97044,-1.8 -0.97044,-4.373437 z m 4.05056,0.210938 q 0,2.221875 1.05483,3.403124 1.05484,1.18125 2.60193,1.18125 1.54709,0 2.58786,-1.18125 1.05483,-1.181249 1.05483,-3.431249 0,-2.19375 -1.05483,-3.375 -1.04077,-1.18125 -2.58786,-1.18125 -1.54709,0 -2.60193,1.18125 -1.05483,1.18125 -1.05483,3.403125 z m 21.30764,-7.467188 v 3.15 h -2.70037 v 6.01875 q 0,1.828125 0.0703,2.1375 0.0844,0.295312 0.35161,0.492187 0.28129,0.196875 0.67509,0.196875 0.54852,0 1.58929,-0.379687 l 0.33754,3.065625 q -1.37831,0.590625 -3.1223,0.590625 -1.0689,0 -1.92683,-0.351563 -0.85794,-0.365625 -1.26581,-0.928125 -0.3938,-0.576562 -0.54851,-1.546875 -0.12658,-0.689062 -0.12658,-2.784374 v -6.510938 h -1.81431 v -3.15 h 1.81431 v -2.967187 l 3.96618,-2.30625 v 5.273437 z m 9.35286,10.673437 3.96618,-0.604687 q 0.25316,1.153125 1.0267,1.757812 0.77354,0.590625 2.16593,0.590625 1.53302,0 2.30657,-0.5625 0.52038,-0.39375 0.52038,-1.054687 0,-0.45 -0.28129,-0.745313 -0.29535,-0.28125 -1.32206,-0.520312 -4.78191,-1.054687 -6.06178,-1.926562 -1.77212,-1.209375 -1.77212,-3.360938 0,-1.940625 1.53303,-3.2625 1.53302,-1.321875 4.75378,-1.321875 3.06605,0 4.55689,0.998438 1.49083,0.998437 2.05341,2.953125 l -3.72708,0.689062 q -0.2391,-0.871875 -0.91419,-1.335937 -0.66103,-0.464063 -1.8987,-0.464063 -1.56116,0 -2.23625,0.435938 -0.45006,0.309375 -0.45006,0.801562 0,0.421875 0.3938,0.717188 0.53445,0.39375 3.68489,1.110937 3.1645,0.717188 4.41623,1.757813 1.23768,1.054687 1.23768,2.939062 0,2.053125 -1.71587,3.529687 -1.71586,1.476563 -5.07726,1.476563 -3.05199,0 -4.83818,-1.2375 -1.77212,-1.2375 -2.32063,-3.360938 z m 30.43547,-6.257812 -3.89585,0.703125 q -0.1969,-1.167187 -0.90013,-1.757812 -0.68915,-0.590625 -1.80025,-0.590625 -1.47676,0 -2.36282,1.026562 -0.872,1.0125 -0.872,3.403125 0,2.657812 0.88606,3.754687 0.90013,1.096875 2.40502,1.096875 1.12516,0 1.84245,-0.632812 0.71728,-0.646875 1.01264,-2.207812 l 3.88178,0.660937 q -0.60477,2.671875 -2.32063,4.035937 -1.71586,1.364063 -4.59908,1.364063 -3.27701,0 -5.23197,-2.067188 -1.9409,-2.067187 -1.9409,-5.723437 0,-3.698437 1.95496,-5.751562 1.95496,-2.067188 5.28824,-2.067188 2.7285,0 4.33185,1.18125 1.61741,1.167188 2.32063,3.571875 z m 5.94926,0.140625 -3.58643,-0.646875 q 0.60477,-2.165625 2.08154,-3.20625 1.47676,-1.040625 4.38811,-1.040625 2.64411,0 3.93804,0.632813 1.29393,0.61875 1.81432,1.589062 0.53445,0.95625 0.53445,3.529688 l -0.0422,4.612499 q 0,1.96875 0.18284,2.910938 0.1969,0.928125 0.71729,1.996875 h -3.90992 q -0.15471,-0.39375 -0.37974,-1.167188 -0.0984,-0.351562 -0.14064,-0.464062 -1.01264,0.984375 -2.16593,1.476562 -1.15329,0.492188 -2.46128,0.492188 -2.30657,0 -3.64269,-1.251563 -1.32206,-1.251562 -1.32206,-3.164062 0,-1.265625 0.60477,-2.25 0.60477,-0.998437 1.68773,-1.51875 1.09703,-0.534375 3.15044,-0.928125 2.7707,-0.520312 3.8396,-0.970312 v -0.39375 q 0,-1.139063 -0.56258,-1.617188 -0.56258,-0.492187 -2.12373,-0.492187 -1.05484,0 -1.64554,0.421875 -0.59071,0.407812 -0.95639,1.448437 z m 5.28824,3.20625 q -0.75948,0.253125 -2.40502,0.604688 -1.64554,0.351562 -2.15186,0.689062 -0.77355,0.548438 -0.77355,1.392187 0,0.829688 0.61884,1.434375 0.61883,0.604688 1.57521,0.604688 1.0689,0 2.03935,-0.703125 0.71729,-0.534375 0.94232,-1.307813 0.15471,-0.50625 0.15471,-1.926562 z m 7.77764,7.171875 V 12.334377 h 3.95211 v 20.615624 z m 8.00268,-16.959374 v -3.65625 h 3.95211 v 3.65625 z m 0,16.959374 V 18.015626 h 3.95211 v 14.934375 z m 21.58893,0 h -3.95211 v -7.621875 q 0,-2.41875 -0.25316,-3.121875 -0.25316,-0.717187 -0.8298,-1.110937 -0.56258,-0.39375 -1.36425,-0.39375 -1.02671,0 -1.84244,0.5625 -0.81574,0.5625 -1.12516,1.490625 -0.29535,0.928125 -0.29535,3.43125 v 6.764062 h -3.95212 V 18.015626 h 3.67083 v 2.19375 q 1.95496,-2.53125 4.92256,-2.53125 1.30799,0 2.39095,0.478125 1.08297,0.464063 1.63148,1.195313 0.56258,0.73125 0.77354,1.659375 0.22503,0.928125 0.22503,2.657812 z m 3.64269,0.984375 4.51469,0.548437 q 0.11251,0.7875 0.52038,1.082813 0.56258,0.421875 1.77212,0.421875 1.54709,0 2.32064,-0.464063 0.52038,-0.309375 0.78761,-0.998437 0.18283,-0.492188 0.18283,-1.814063 v -2.179687 q -1.77212,2.41875 -4.47249,2.41875 -3.00979,0 -4.76785,-2.545313 -1.37832,-2.010937 -1.37832,-5.006249 0,-3.754688 1.80025,-5.7375 1.81432,-1.982813 4.50063,-1.982813 2.77069,0 4.57094,2.432813 v -2.095313 h 3.69896 v 13.401562 q 0,2.64375 -0.436,3.951563 -0.436,1.307812 -1.22361,2.053125 -0.78761,0.745312 -2.10967,1.167187 -1.30799,0.421875 -3.31921,0.421875 -3.7974,0 -5.38668,-1.307812 -1.58929,-1.29375 -1.58929,-3.290625 0,-0.196875 0.0141,-0.478125 z m 3.53018,-8.760937 q 0,2.376562 0.91418,3.487499 0.92826,1.096875 2.27845,1.096875 1.44863,0 2.44721,-1.125 0.99858,-1.139062 0.99858,-3.360937 0,-2.320312 -0.95639,-3.445312 -0.95638,-1.125 -2.41908,-1.125 -1.42051,0 -2.34877,1.110937 -0.91418,1.096875 -0.91418,3.360938 z"
         id="text31"
         style="font-weight:bold;font-size:28.8px;font-family:'Nimbus Sans';white-space:pre;fill:#000000;stroke:none"
         transform="translate(10.5,22.5)"
         aria-label="Dot plot scaling" />
    </g>
  </g>
</svg>
